<svg xmlns="http://www.w3.org/2000/svg" viewBox="0 0 96 96">
  <rect width="96" height="96" fill="#0a0a0a"/>
  <g transform="translate(8.000, 8.000) scale(0.8333)">
    <path fill="#ff9d0b" d="M16.77 46.37a30.3 30.3 0 0 1 19.07-28.08 31 31 0 0 1 19.8-1.28 31 31 0 0 1 7.45 3.04 30.3 30.3 0 0 1 15.44 26.32c0 16.78-13.82 30.4-30.88 30.4s-30.88-13.62-30.88-30.4m0 0"/><path fill="#ffd21e" d="M47.65 73.63c15.3 0 27.7-12.21 27.7-27.26s-12.4-27.26-27.7-27.26-27.69 12.2-27.69 27.26c0 15.05 12.4 27.25 27.7 27.25Zm0 0"/><path fill="#ff323d" d="M47.45 57.77c7.84 0 10.36-6.87 10.36-10.4 0-1.83-1.25-1.25-3.26-.28-1.85.9-4.35 2.15-7.09 2.15-5.73 0-10.36-5.4-10.36-1.87s2.52 10.4 10.36 10.4Zm0 0"/><path fill="#3a3b45" d="M56.65 38.96c1.02.34 1.42 2.4 2.44 1.86a3.9 3.9 0 0 0-1.85-7.38 4 4 0 0 0-2.22.65 3.87 3.87 0 0 0-1.32 5.1c.5.91 2.04-.55 2.95-.24Zm-18.77 0c-1.02.34-1.43 2.4-2.45 1.86a3.9 3.9 0 0 1-2.1-3.84 3.94 3.94 0 0 1 3.96-3.54 4 4 0 0 1 2.21.65 3.87 3.87 0 0 1 1.32 5.1c-.48.91-2.04-.55-2.94-.24Zm3.57 17.02a7 7 0 0 1 4.23-3.53c.22-.06.46.2.7.55l.6.97c.23.32.45.56.67.56.24 0 .48-.23.71-.55l.66-.96c.25-.35.5-.6.74-.52a6.8 6.8 0 0 1 3.99 3.27 11.2 11.2 0 0 0 4.06-8.4c0-1.62-.97-1.35-2.58-.6l-1.96.94a14 14 0 0 1-5.82 1.53 14 14 0 0 1-5.8-1.53l-1.89-.9c-1.65-.8-2.67-1.1-2.67.56 0 2.24 1.02 5.84 3.78 8.16zm0 0"/><path fill="#ff9d0b" d="M66.38 42.64a2.5 2.5 0 0 0 1.82-.74 2.6 2.6 0 0 0 .77-1.81c0-1.4-1.16-2.55-2.6-2.55a2.5 2.5 0 0 0-1.82.74 2.6 2.6 0 0 0-.76 1.81 2.57 2.57 0 0 0 2.59 2.55m-37.06 0a2.5 2.5 0 0 0 1.83-.74 2.6 2.6 0 0 0 .76-1.81c0-1.4-1.16-2.55-2.59-2.55a2.5 2.5 0 0 0-1.82.74 2.6 2.6 0 0 0-.77 1.81 2.57 2.57 0 0 0 2.6 2.55m-5.33 8.63c-1.3 0-2.44.52-3.24 1.47a4.5 4.5 0 0 0-1.06 2.94 6 6 0 0 0-1.55-.23 4.4 4.4 0 0 0-4.4 3.94 4.4 4.4 0 0 0 .63 2.85 4 4 0 0 0-1.43 2.21c-.19.71-.38 2.2.64 3.72a4 4 0 0 0-.3 3.94c.76 1.7 2.58 3.05 6.02 4.48l.77.3c2.45.96 4.7 1.57 4.71 1.58 2.84.77 5.77 1.2 8.71 1.26 4.67 0 8.01-1.42 9.93-4.2 2.96-4.27 2.68-8.2-.87-11.99l-.48-.49a21 21 0 0 1-3.99-6.1c-.62-2.08-2.26-4.4-4.98-4.4a4.6 4.6 0 0 0-3.66 1.93 10 10 0 0 0-2.28-2.21 6 6 0 0 0-3.17-1m47.72 0c1.29 0 2.44.52 3.24 1.47a4.6 4.6 0 0 1 1.06 2.94 6 6 0 0 1 1.55-.23 4.4 4.4 0 0 1 4.4 3.94 4.4 4.4 0 0 1-.62 2.85 4.2 4.2 0 0 1 1.42 2.21c.19.71.38 2.2-.64 3.72.78 1.18.9 2.67.3 3.94-.76 1.7-2.58 3.05-6.02 4.48l-.76.3c-2.46.96-4.7 1.57-4.72 1.58a36 36 0 0 1-8.7 1.26q-7.04-.02-9.94-4.2c-2.96-4.27-2.68-8.2.87-11.99l.49-.49a21 21 0 0 0 3.98-6.1c.63-2.08 2.26-4.4 4.98-4.4 1.47.02 2.83.74 3.67 1.93.8-1 1.57-1.77 2.28-2.21a6 6 0 0 1 2.6-.96Zm0 0"/><path fill="#ffd21e" d="M40.79 73.77c2.2-3.17 2.03-5.55-.97-8.5-3.02-2.96-4.77-7.3-4.77-7.3s-.65-2.5-2.14-2.27c-1.5.24-2.58 3.98.54 6.28s-.62 3.86-1.83 1.7c-1.19-2.15-4.47-7.7-6.18-8.76-1.7-1.06-2.89-.47-2.5 1.72.4 2.2 7.52 7.5 6.83 8.63-.7 1.15-3.13-1.34-3.13-1.34s-7.63-6.84-9.3-5.05c-1.65 1.78 1.27 3.27 5.43 5.74 4.16 2.49 4.49 3.15 3.9 4.09s-9.79-6.7-10.65-3.46c-.86 3.23 9.38 4.16 8.75 6.4-.63 2.23-7.22-4.22-8.56-1.71s9.29 5.47 9.38 5.5c3.42.87 12.15 2.73 15.2-1.67m14.13 0c-2.2-3.17-2.05-5.55.97-8.5 3-2.96 4.76-7.3 4.76-7.3s.65-2.5 2.15-2.27c1.48.24 2.57 3.98-.54 6.28-3.13 2.3.62 3.86 1.81 1.7 1.2-2.15 4.49-7.7 6.19-8.76s2.9-.47 2.49 1.72c-.4 2.2-7.5 7.5-6.81 8.63.69 1.15 3.12-1.34 3.12-1.34s7.64-6.84 9.3-5.05c1.65 1.78-1.27 3.27-5.42 5.74-4.17 2.49-4.5 3.15-3.9 4.09.59.93 9.78-6.7 10.64-3.46.86 3.23-9.38 4.16-8.75 6.4.64 2.23 7.22-4.22 8.56-1.71s-9.28 5.47-9.37 5.5c-3.43.87-12.16 2.73-15.2-1.67m0 0"/>
  </g>
</svg>
