<svg xmlns="http://www.w3.org/2000/svg" viewBox="0 0 96 96"><path fill-rule="evenodd" d="M63.09 20.05a30.3 30.3 0 0 1 15.44 26.32c0 3.17-.5 6.23-1.41 9.1a4.2 4.2 0 0 1 3.58 1.28 4.4 4.4 0 0 1 1.2 4.12q-.17.73-.56 1.37a4 4 0 0 1 1.37 2.02l.05.2c.19.7.38 2.2-.64 3.71.78 1.18.9 2.67.3 3.94-.81 1.82-2.85 3.25-6.78 4.78l-.65.25-.42.15c-1.52.55-2.83.94-3.38 1.1l-.27.08a36 36 0 0 1-8.7 1.26q-6.34-.01-9.33-3.4a31 31 0 0 1-10.13.05q-3 3.34-9.27 3.35a36 36 0 0 1-8.1-1.1l-.7-.19-.88-.26a53 53 0 0 1-3.74-1.29c-3.94-1.53-5.98-2.96-6.8-4.78a4 4 0 0 1 .3-3.94 4.47 4.47 0 0 1 .8-5.93 4.4 4.4 0 0 1-.63-2.85 4.5 4.5 0 0 1 1.26-2.64 4.2 4.2 0 0 1 2.92-1.3h.25a30 30 0 0 1-1.4-9.08 30.3 30.3 0 0 1 19.07-28.08 31.4 31.4 0 0 1 27.25 1.76m-40.14 36.6c.4 2.18 7.51 7.48 6.82 8.62-.6 1-2.54-.76-3.02-1.23l-.13-.13-.54-.47c-1.79-1.52-7.34-6.05-8.73-4.56-1.37 1.46.38 2.74 3.36 4.53l2.5 1.48.43.27c3.34 2.05 3.57 2.68 3.03 3.55-.6.93-9.78-6.7-10.64-3.46-.87 3.23 9.37 4.16 8.74 6.4-.63 2.23-7.22-4.22-8.56-1.71s9.29 5.47 9.38 5.5l.5.12.56.14c3.91.9 11.37 2.07 14.14-1.93 2.14-3.1 2.04-5.45-.79-8.32l-.18-.18c-3.02-2.96-4.77-7.3-4.77-7.3l-.05-.18-.08-.23c-.26-.7-.9-2.03-2.01-1.86-1.46.23-2.54 3.86.38 6.16l.16.12c3.12 2.3-.62 3.86-1.83 1.7l-.18-.32-.46-.8c-1.47-2.55-4.08-6.73-5.54-7.64-1.7-1.06-2.89-.47-2.5 1.72m47.3-1.73c-1.7 1.06-4.97 6.6-6.18 8.76q-.3.6-.93.86-.6.28-1.26.1-.31-.08-.56-.3l-.15-.2-.05-.09-.05-.12v-.04l-.02-.05v-.16c0-.38.22-.84.79-1.36l.27-.22.15-.12.2-.15c2.81-2.27 1.83-5.77.41-6.12l-.1-.01-.17-.02-.2.02-.09.02-.13.05-.13.05-.09.05-.09.06-.1.08-.08.07a4 4 0 0 0-1 1.72l-.04.18s-1.7 4.17-4.59 7.12l-.17.17a8 8 0 0 0-2.24 3.25c-.45 1.39-.2 2.76.67 4.3q.27.47.6.95c2.8 4.07 10.46 2.8 14.32 1.88l.91-.22.8-.24c.88-.26 2.35-.74 3.82-1.33l.6-.25.21-.09.2-.09.4-.18.26-.12c1.69-.8 3.07-1.73 3.17-2.64v-.11q0-.23-.12-.44c-.3-.56-.86-.68-1.56-.54l-.14.03q-.23.05-.44.13l-.3.11-.18.07c-1.78.74-3.95 2.25-5.12 2.38h.02-.32l-.07-.02q-.33-.07-.45-.45a1 1 0 0 1-.01-.32c.2-1.1 3.05-1.9 5.46-2.9l.21-.09c1.68-.72 3.09-1.54 3.14-2.65v-.13q0-.15-.05-.31c-.16-.58-.56-.8-1.15-.8-2.5 0-8.13 4.33-9.3 4.33q-.14 0-.2-.07l-.14-.28c-.32-.76.22-1.48 3.38-3.4l.67-.4c1.71-1.02 3.22-1.88 4.27-2.65.92-.68 1.51-1.3 1.6-1.91l.01-.1q.05-.53-.46-1.1l-.23-.16-.1-.05-.05-.02a1 1 0 0 0-.41-.06 5 5 0 0 0-1.9.57c-2.03 1-4.56 3.04-5.82 4.1l-.8.68-.1.1c-.25.26-.91.87-1.57 1.24l-.23.12-.13.06q-.18.08-.39.11h.02l-.1.01h.03-.04q-.38.04-.6-.3a.4.4 0 0 1-.05-.2c.09-1.49 6.49-6.36 6.86-8.43l.03-.15c.32-2.07-.87-2.6-2.52-1.57m-22.6-35.8c-15.3 0-27.69 12.2-27.69 27.24q0 3.32.76 6.4l.03-.02a4.2 4.2 0 0 1 3.24-1.47c1.14.03 2.23.37 3.17 1 .7.44 1.48 1.22 2.28 2.2a4.6 4.6 0 0 1 3.66-1.92c2.72 0 4.36 2.32 4.98 4.4l.15.34.2.4a20 20 0 0 0 3.64 5.36c3.38 3.32 4.22 6.74 2.54 10.41q3.23.35 6.46-.04c-1.61-3.57-.83-6.92 2.36-10.16l.2-.2a21 21 0 0 0 4-6.1c.62-2.1 2.25-4.41 4.97-4.41 1.47.02 2.83.74 3.67 1.93.8-1 1.57-1.77 2.28-2.21q1.44-.96 3.16-1c1.14 0 2.17.4 2.95 1.15q.67-2.93.68-6.05c0-15.05-12.4-27.26-27.69-27.26m5.92 28.44 1.4-.67c1.76-.84 2.84-1.22 2.84.48 0 3.49-2.46 10.23-10.06 10.4h-.59c-7.4-.16-9.93-6.57-10.05-10.12v-.28c0-3.53 4.62 1.87 10.35 1.87 2.28 0 4.4-.87 6.11-1.68m12.8-10.02c1.44 0 2.6 1.15 2.6 2.55a2.57 2.57 0 0 1-2.6 2.55 2.5 2.5 0 0 1-1.82-.73 2.6 2.6 0 0 1-.76-1.82c0-1.4 1.16-2.55 2.59-2.55m-37.05 0a2.57 2.57 0 0 1 2.6 2.55 2.6 2.6 0 0 1-2.6 2.55 2.5 2.5 0 0 1-1.82-.73 2.6 2.6 0 0 1-.77-1.82c0-1.4 1.16-2.55 2.6-2.55m24.84-2.68a4 4 0 0 1 4.23-1.25 3.9 3.9 0 0 1 .7 7.21c-1.02.54-1.42-1.52-2.44-1.86v-.01c-.91-.31-2.46 1.15-2.94.25a3.7 3.7 0 0 1-.45-2.24 4 4 0 0 1 .9-2.1m-13.78 0a3.9 3.9 0 0 1 .44 4.34c-.48.9-2.04-.56-2.94-.25-.34.12-.61.43-.87.77l-.37.53c-.35.48-.7.83-1.2.57a3.9 3.9 0 0 1-2.1-3.84 3.94 3.94 0 0 1 3.95-3.54 4 4 0 0 1 2.21.65 4 4 0 0 1 .88.77m0 0"/></svg>