<svg xmlns="http://www.w3.org/2000/svg" width="128" height="128" fill="none" viewBox="0 0 128 128"><path fill="#000" d="M104.449 38.145A47.8 47.8 0 0 1 112 64c0 26.51-21.49 48-48 48q-.608 0-1.212-.015l-.479-.995c-3.724-7.853-6.202-16.146-8.878-25.982 6.976-2.908 13.126-5.494 19.294-8.596a266 266 0 0 0 3.456 9.61C77.31 89 80.152 87.758 79.2 84.6a345 345 0 0 1-2.881-10.056c4.636-2.492 9.375-5.36 14.565-8.962 5.982-4.688 2.433-4.574-1.248-2.73-3.834 1.921-8.695 4.23-14.561 6.866-1.686-6.853-2.957-13.494-3.741-20.467a199 199 0 0 1-.57-5.877c10.159-2.28 21.216-4.106 33.685-5.23m-55.951 48.87c3.344 9.905 7.323 18.875 10.512 24.727-13.38-1.381-25.13-8.259-32.951-18.338 7.362-1.56 14.998-3.542 22.439-6.39M63.849 16c-.426 7.024-.236 15.975.608 23.79a217 217 0 0 0-19.275 4.3c-.266-3.068-.4-5.872-.4-8.31a3.2 3.2 0 0 0-6.4 0c0 2.968.247 6.376.692 10.073a218 218 0 0 0-9.108 2.997 3.2 3.2 0 0 0 2.134 6.034c2.603-.92 5.224-1.831 7.874-2.726 1.28 7.844 3.228 16.504 5.474 24.839q.59 2.183 1.239 4.344c-8.267 2.849-16.704 5.165-24.42 6.388A47.8 47.8 0 0 1 16 63.999C16 37.54 37.409 16.082 63.85 16m1.255 28.714c.318 2.015.687 3.888 1.11 5.55a156 156 0 0 0 4.923 21.207 697 697 0 0 1-10.665 4.59 228 228 0 0 1-8.538 3.394q-.539-2.016-1.106-4.123c-2.32-8.612-3.992-17.389-4.982-25.109 6.153-1.974 12.517-3.836 19.258-5.51M70.23 16.4c13.345 1.73 24.97 8.94 32.545 19.301-11.962.605-22.582 1.633-32.342 3.111-.486-7.779-.611-15.942-.203-22.412"/></svg>