<svg xmlns="http://www.w3.org/2000/svg" viewBox="0 0 96 96">
  <rect width="96" height="96" fill="#ffffff"/>
  <g transform="translate(8.000, 8.000) scale(0.6250)">
    <path fill="#5019c5" fill-rule="evenodd" d="M75.2 36 63.996 63.18 52.78 36h-7.192l12.288 29.712a6.56 6.56 0 0 0 12.152.008L82.392 36zm4.784 41.408 20.496-20.976-2.796-6.676L75.3 72.712a6.66 6.66 0 0 0-1.372 7.228 6.57 6.57 0 0 0 6.064 4.048L80 84l32-.08-2.796-6.676-29.212.164zM27.52 56.416l2.796-6.676L52.7 72.696a6.64 6.64 0 0 1 1.372 7.228 6.57 6.57 0 0 1-6.064 4.048l-32-.072-.008.008 2.796-6.676 29.212.168z" clip-rule="evenodd"/>
  </g>
</svg>
