<svg xmlns="http://www.w3.org/2000/svg" width="128" height="128" fill="none" viewBox="0 0 128 128"><path fill="#000" fill-rule="evenodd" d="M75.2 36 63.996 63.18 52.78 36h-7.192l12.288 29.712a6.56 6.56 0 0 0 12.152.008L82.392 36zm4.784 41.408 20.496-20.976-2.796-6.676L75.3 72.712a6.66 6.66 0 0 0-1.372 7.228 6.57 6.57 0 0 0 6.064 4.048L80 84l32-.08-2.796-6.676-29.212.164zM27.52 56.416l2.796-6.676L52.7 72.696a6.64 6.64 0 0 1 1.372 7.228 6.57 6.57 0 0 1-6.064 4.048l-32-.072-.008.008 2.796-6.676 29.212.168z" clip-rule="evenodd"/></svg>