<svg xmlns="http://www.w3.org/2000/svg" width="128" height="128" fill="none" viewBox="0 0 128 128"><path fill="#fff" d="M92.8 35.2H35.2v57.6h57.6z"/><path fill="#03121e" d="M92 24H36c-6.624 0-12 5.376-12 12v56c0 6.624 5.376 12 12 12h56c6.624 0 12-5.376 12-12V36c0-6.624-5.376-12-12-12M54.8 57.392v.016c-1.168 1.656-1.24 4.112-1.208 5.44v3.824c0 2.52-2.056 4.576-4.56 4.576H43.6a4.567 4.567 0 0 1-4.56-4.576v-5.336a4.567 4.567 0 0 1 4.56-4.576h3.208c.576 0 1.968-.024 2.576-.144.52-.104 2.2-.48 3.8-1.68.176-.128.336-.256.472-.376 0 0 .368-.312.696-.656.904-.936 1.6-2.272 1.6-2.272.224-.416.736-1.472 1.04-2.936.144-.712.208-1.376.256-1.92l.168-3.176a4.57 4.57 0 0 1 4.568-4.568h5.304a4.57 4.57 0 0 1 4.568 4.568v5.344a4.57 4.57 0 0 1-4.568 4.568h-4.36c-1 .024-1.832.128-2.448.24-1.128.208-1.712.448-1.888.52m-12.336-.112c-4.336 0-7.856-3.528-7.856-7.88s3.52-7.88 7.856-7.88 7.856 3.528 7.856 7.88-3.52 7.88-7.856 7.88m0 19.68c4.336 0 7.856 3.528 7.856 7.88s-3.52 7.88-7.856 7.88-7.856-3.528-7.856-7.88 3.52-7.88 7.856-7.88M89.6 49.096a4.43 4.43 0 0 1-4.424 4.424 26 26 0 0 0-3.112.016c-1.312.088-2.08.136-3.096.448-1.144.352-1.96.84-2.424 1.12-.2.12-.992.608-1.912 1.424-.52.464-1.016.904-1.528 1.608a8.4 8.4 0 0 0-1.184 2.36c-.432 1.296-.512 3.096-.488 3.968l-.048 2.344a4.423 4.423 0 0 1-4.416 4.432H61.36a4.423 4.423 0 0 1-4.416-4.432v-5.624a4.423 4.423 0 0 1 4.416-4.432h3.392c1.2 0 3.584.104 5.608-.64 1.736-.632 3.472-2.392 4.152-4.32.648-1.96.632-4.568.632-4.568l.016-3.768a4.43 4.43 0 0 1 4.424-4.424h5.592a4.43 4.43 0 0 1 4.424 4.424z"/></svg>