<svg xmlns="http://www.w3.org/2000/svg" xmlns:xlink="http://www.w3.org/1999/xlink" viewBox="0 0 96 96"><defs><clipPath id="a"><path d="M9.6 34h34.4v18h-34.4Zm0 0"/></clipPath><clipPath id="b"><path d="M9.6 26h43.4v43h-43.4Zm0 0"/></clipPath><clipPath id="c"><path d="M52 34h34.1v18h-34.1Zm0 0"/></clipPath><clipPath id="d"><path d="M60 26h26.1v43h-26.1Zm0 0"/></clipPath></defs><g clip-path="url(#a)"><path fill="#36ced0" d="M9.6 35h8.5v8.5h-8.5Zm25.5 8.5h8.5v8.5h-8.5Zm0 0"/></g><g clip-path="url(#b)"><path fill="#624aff" d="M9.6 43.5h8.5v8.5h-8.5Zm8.5 8.5h8.5v8.5h8.5v8.5h-17Zm0-25.5h17v8.5h-8.5v8.5h-8.5Zm25.5 25.5h8.5v8.5h-8.5Zm0 0"/></g><g clip-path="url(#c)"><path fill="#36ced0" d="M86.1 35h-8.5v8.5h8.5Zm-25.5 8.5h-8.5v8.5h8.5Zm0 0"/></g><g clip-path="url(#d)"><path fill="#624aff" d="M86.1 43.5h-8.5v8.5h8.5Zm-8.5 8.5h-8.5v8.5h-8.5v8.5h17Zm0-25.5h-17v8.5h8.5v8.5h8.5Zm0 0"/></g></svg>