<svg xmlns="http://www.w3.org/2000/svg" xmlns:xlink="http://www.w3.org/1999/xlink" viewBox="0 0 96 96"><defs><clipPath id="a"><path d="M9.6 26h51.4v43h-51.4Zm0 0"/></clipPath><clipPath id="b"><path d="M60 26h26.1v26h-26.1Zm0 0"/></clipPath></defs><g clip-path="url(#a)"><path fill-rule="evenodd" d="M18.1 26.5h17v8.5h-8.5v8.5h-8.5v-6.91h-6.9v6.9h6.9v8.5h-8.5v-17h8.5Zm0 25.5h8.5v8.5h8.5v8.5h-17Zm17-8.5h8.5v8.5h-8.5Zm17 8.5v8.5h-8.5v-8.5Zm0 0v-8.5h8.5v8.5Zm0 0"/></g><g clip-path="url(#b)"><path fill-rule="evenodd" d="M77.6 52v-8.5h-8.5v-8.5h-8.5v-8.5h17v8.5h8.5v17Zm0-8.5h6.9v-6.91h-6.9Zm0 0"/></g><path fill-rule="evenodd" d="M77.6 52v17h-17v-8.5h8.5v-8.5Zm0 0"/></svg>