<svg xmlns="http://www.w3.org/2000/svg" viewBox="0 0 96 96">
  <rect width="96" height="96" fill="#0a0a0a"/>
  <g transform="translate(8.000, 8.000) scale(0.8333)">
    <defs><clipPath id="a"><path d="M51 10h32.92v75h-32.92Zm0 0"/></clipPath><clipPath id="b"><path d="M11.92 9.6h68.08v76.5h-68.08Zm0 0"/></clipPath></defs><g clip-path="url(#a)"><path fill="#fff" d="M83.91 29.21c0-1.37-.77-2.63-2-3.25l-30.37-15.18s.97 1.1.97 2.31v68.67c0 1.35-.97 2.31-.97 2.31l5.03-2.46a6.8 6.8 0 0 0 2.46-5.28c.1-3.29.2-27.97.24-39.9.16-1.22 1.35-3.64 4.84-3.64 3.47 0 9.66 1.7 12.32 2.54.8.24 2.5 1.38 2.9 4 .38 2.6.32 19.47.24 27.57 0 .8.04 2.33 2.2 2.33 2.14 0 2.14-2.33 2.14-2.33Zm0 0"/></g><g clip-path="url(#b)"><path fill="#fff" d="M61.2 38.06a2.9 2.9 0 0 1 3.5-2.84l10.39 2.2a2.9 2.9 0 0 1 2.3 2.83v27.01c0 1.94 1.7 3.03 1.7 3.03l-17.15-4.18a.96.96 0 0 1-.74-.94Zm-16.34-28.08a3.62 3.62 0 0 1 5.23 3.25v69.24a3.62 3.62 0 0 1-5.23 3.25l-30.92-15.28a3.6 3.6 0 0 1-2.02-3.26v-5.9l16.42 6.56a2.03 2.03 0 1 0 1.4-3.82l-17.82-5.95v-4.72l13.3 2.54a2.13 2.13 0 1 0 .64-4.2l-13.94-1.56v-4.76l25.93-1a2.55 2.55 0 1 0-.38-5.09l-25.55 2.87v-5.36l17.65-5.9a1.93 1.93 0 1 0-1.3-3.62l-16.35 6.3v-5.05c0-1.38.78-2.64 2.02-3.25Zm0 0"/></g>
  </g>
</svg>
