<svg xmlns="http://www.w3.org/2000/svg" viewBox="0 0 96 96">
  <rect width="96" height="96" fill="#0a0a0a"/>
  <g transform="translate(8.000, 8.000) scale(0.8333)">
    <defs><clipPath id="a"><path d="M9.6 64h76.5v12h-76.5Zm0 0"/></clipPath></defs><path fill="gold" d="M20.53 20.44h10.93v10.92h-10.93Zm43.7 0h10.94v10.92h-10.93Zm0 0"/><path fill="#ffaf00" d="M20.53 31.36h21.85v10.93h-21.85zm32.78 0h21.86v10.93h-21.86Zm0 0"/><path fill="#ff8205" d="M20.53 42.3h54.64v10.92h-54.64Zm0 0"/><path fill="#fa500f" d="M20.53 53.22h10.93v10.93h-10.93Zm21.86 0h10.93v10.93h-10.93Zm21.85 0h10.93v10.93h-10.93Zm0 0"/><g clip-path="url(#a)"><path fill="#e10500" d="M9.6 64.15h32.79v10.93h-32.79Zm43.71 0h32.8v10.93h-32.8Zm0 0"/></g>
  </g>
</svg>
