<svg xmlns="http://www.w3.org/2000/svg" viewBox="0 0 96 96"><path fill-rule="evenodd" d="M82.91 48.63c0-2.88-.24-4.99-.75-7.17h-33.6v13.01h19.72c-.4 3.24-2.54 8.1-7.31 11.38l-.07.44 10.62 8.06.74.07c6.76-6.12 10.65-15.12 10.65-25.79m0 0"/><path fill-rule="evenodd" d="M48.57 82.91c9.66 0 17.77-3.11 23.7-8.5l-11.3-8.56c-3.02 2.06-7.08 3.5-12.4 3.5a21.5 21.5 0 0 1-19.04-11.5q-.78-1.49-1.32-3.07l-.42.04-11.04 8.38-.15.39a35.8 35.8 0 0 0 31.97 19.32m0 0"/><path fill-rule="evenodd" d="M28.21 54.78a21 21 0 0 1-.05-13.86l-.02-.47-11.18-8.51-.36.17a34.5 34.5 0 0 0 0 31.48zm0 0"/><path fill-rule="evenodd" d="M48.57 26.34a20 20 0 0 1 13.83 5.23l10.1-9.67a34.8 34.8 0 0 0-23.93-9.11c-14 0-26.08 7.87-31.97 19.32l11.57 8.8a21 21 0 0 1 5.31-8.4 21 21 0 0 1 8.5-5.13 22 22 0 0 1 6.59-1.04m0 0"/></svg>