<svg xmlns="http://www.w3.org/2000/svg" xmlns:xlink="http://www.w3.org/1999/xlink" viewBox="0 0 96 96"><defs><clipPath id="a"><path d="M9.6 19h67.4v52h-67.4Zm0 0"/></clipPath><clipPath id="b"><path d="M29 42h57.1v41h-57.1Zm0 0"/></clipPath></defs><g clip-path="url(#a)"><path fill-rule="evenodd" d="M75.6 31.52a4.5 4.5 0 0 0-3.27-1.32h-.02a6.45 6.45 0 0 1-6.44-6.45 4.5 4.5 0 0 0-2.73-4.22 5 5 0 0 0-1.73-.37h-36.28a4 4 0 0 0-1.73.36 4 4 0 0 0-1.46 1 4.5 4.5 0 0 0-1.28 3.21 6.5 6.5 0 0 1-6.45 6.46 4 4 0 0 0-1.76.32 4.4 4.4 0 0 0-2.5 2.46 4 4 0 0 0-.35 1.76v11.6a4.6 4.6 0 0 0 .77 2.55 4.4 4.4 0 0 0 2.94 1.91q.45.08.9.07a6.5 6.5 0 0 1 5.95 3.98 7 7 0 0 1 .5 2.46v11.77q0 .51.29.92.3.41.77.59.48.16.97.03.5-.15.8-.54l6.54-8.18h31.38a4 4 0 0 0 1.72-.36 4.6 4.6 0 0 0 2.67-3.33q.08-.45.07-.88v-.01a6.45 6.45 0 0 1 6.46-6.45 4.6 4.6 0 0 0 2.56-.73 4.4 4.4 0 0 0 2.05-3.8v-11.61c0-1.16-.45-2.32-1.33-3.2m-7.7 14.94a6.4 6.4 0 0 1-1.92 4.52 6.6 6.6 0 0 1-4.54 1.87h-36.35a6.4 6.4 0 0 1-5.34-2.84 6 6 0 0 1-.98-2.3 6 6 0 0 1-.13-1.25v-11.86a6.4 6.4 0 0 1 2.89-5.31 6.3 6.3 0 0 1 3.56-1.08h36.34a6.4 6.4 0 0 1 4.54 1.87 6.3 6.3 0 0 1 1.78 3.27q.13.62.14 1.25v11.86Zm0 0"/></g><path fill-rule="evenodd" d="M33.23 33.73a4.5 4.5 0 0 0-4.2 2.8 5 5 0 0 0-.34 1.72v4.54a4.5 4.5 0 0 0 1.33 3.2 5 5 0 0 0 1.47.99 4.6 4.6 0 0 0 3.47 0 4.6 4.6 0 0 0 2.8-4.2v-4.53c0-2.5-2.03-4.53-4.53-4.53Zm20.07 0a4.5 4.5 0 0 0-3.2 1.32 5 5 0 0 0-.99 1.47 5 5 0 0 0-.34 1.74v4.53a4.5 4.5 0 0 0 2.01 3.77 5 5 0 0 0 1.64.68 4.5 4.5 0 0 0 3.4-.68 4 4 0 0 0 1.25-1.25 4.6 4.6 0 0 0 .76-2.52v-4.54c0-2.5-2.03-4.53-4.53-4.53Zm0 0"/><g clip-path="url(#b)"><path fill-rule="evenodd" d="m32.84 81.77 6.36-7.94h31.37a4.4 4.4 0 0 0 2.5-.79 4.5 4.5 0 0 0 1.97-3.78 6.45 6.45 0 0 1 6.42-6.46h.04a4 4 0 0 0 1.76-.31 5 5 0 0 0 1.5-.98 4.4 4.4 0 0 0 1.34-3.24v-11.45c0-1.1-.36-2.17-1.03-3.03l-1.27-1.66v13.16a4 4 0 0 1-.35 1.75 4.4 4.4 0 0 1-1.7 2.04 4.5 4.5 0 0 1-2.55.73h-.02a6 6 0 0 0-2.47.5 6 6 0 0 0-2.08 1.4 6.4 6.4 0 0 0-1.88 4.56 5 5 0 0 1-.32 1.73 4.6 4.6 0 0 1-3.27 2.75q-.45.1-.88.1h-31.38l-6.91 8.64a1.8 1.8 0 0 0-.33 1.31q.05.35.23.66a1.8 1.8 0 0 0 1.06.84 1.8 1.8 0 0 0 1.35-.11q.3-.16.54-.42m0 0"/></g><path fill-rule="evenodd" d="m25.55 73.32 6.76-8.44h31.37a4.5 4.5 0 0 0 4.48-4.58 6.44 6.44 0 0 1 6.41-6.46h.04a5 5 0 0 0 1.76-.32q.42-.15.8-.41a4.4 4.4 0 0 0 2.04-3.8v-13.17l1.66 2.17a5 5 0 0 1 1.03 3.03v11.46a4.6 4.6 0 0 1-1.35 3.23 4.6 4.6 0 0 1-3.25 1.3h-.03a6 6 0 0 0-2.46.5 6.6 6.6 0 0 0-2.88 2.37 6.6 6.6 0 0 0-1.09 3.58 4.5 4.5 0 0 1-1.96 3.79 5 5 0 0 1-1.62.7q-.44.07-.89.09h-31.37l-6.1 7.64a2.1 2.1 0 0 1-2.27.72 2.13 2.13 0 0 1-1.08-3.39Zm0 0"/></svg>