<svg xmlns="http://www.w3.org/2000/svg" xmlns:xlink="http://www.w3.org/1999/xlink" viewBox="0 0 96 96"><defs><clipPath id="a"><path d="M9.6 19h67.4v52h-67.4Zm0 0"/></clipPath><clipPath id="b"><path d="M29 42h57.1v41h-57.1Zm0 0"/></clipPath><clipPath id="c"><path d="m32.84 81.77 6.36-7.94h31.37a4.4 4.4 0 0 0 2.5-.79 4.5 4.5 0 0 0 1.97-3.78 6.45 6.45 0 0 1 6.42-6.46h.04a4 4 0 0 0 1.76-.31 5 5 0 0 0 1.5-.98 4.4 4.4 0 0 0 1.34-3.24v-11.45c0-1.1-.36-2.17-1.03-3.03l-1.27-1.66v13.16a4 4 0 0 1-.35 1.75 4.4 4.4 0 0 1-1.7 2.04 4.5 4.5 0 0 1-2.55.73h-.02a6 6 0 0 0-2.47.5 6 6 0 0 0-2.08 1.4 6.4 6.4 0 0 0-1.88 4.56 5 5 0 0 1-.32 1.73 4.6 4.6 0 0 1-3.27 2.75q-.45.1-.88.1h-31.38l-6.91 8.64a1.8 1.8 0 0 0-.33 1.31q.05.35.23.66a1.8 1.8 0 0 0 1.06.84 1.8 1.8 0 0 0 1.35-.11q.3-.16.54-.42m0 0" clip-rule="evenodd"/></clipPath><clipPath id="e"><path d="M25 36h57v41h-57Zm0 0"/></clipPath><clipPath id="f"><path d="m25.55 73.32 6.76-8.44h31.37a4.5 4.5 0 0 0 4.48-4.58 6.44 6.44 0 0 1 6.41-6.46h.04a5 5 0 0 0 1.76-.32q.42-.15.8-.41a4.4 4.4 0 0 0 2.04-3.8v-13.17l1.66 2.17a5 5 0 0 1 1.03 3.03v11.46a4.6 4.6 0 0 1-1.35 3.23 4.6 4.6 0 0 1-3.25 1.3h-.03a6 6 0 0 0-2.46.5 6.6 6.6 0 0 0-2.88 2.37 6.6 6.6 0 0 0-1.09 3.58 4.5 4.5 0 0 1-1.96 3.79 5 5 0 0 1-1.62.7q-.44.07-.89.09h-31.37l-6.1 7.64a2.1 2.1 0 0 1-2.27.72 2.13 2.13 0 0 1-1.08-3.39Zm0 0" clip-rule="evenodd"/></clipPath><linearGradient id="d" x1="25.48" x2="7.03" y1="12.59" y2="24.03" gradientTransform="translate(9.6 9.6)scale(3.1875)" gradientUnits="userSpaceOnUse"><stop offset="0" stop-color="#5695f9"/><stop offset=".02" stop-color="#5695f9"/><stop offset=".03" stop-color="#5794f9"/><stop offset=".05" stop-color="#5793f9"/><stop offset=".06" stop-color="#5893f9"/><stop offset=".08" stop-color="#5892f9"/><stop offset=".09" stop-color="#5992f9"/><stop offset=".11" stop-color="#5991fa"/><stop offset=".13" stop-color="#5a91fa"/><stop offset=".14" stop-color="#5a90fa"/><stop offset=".16" stop-color="#5b8ffa"/><stop offset=".17" stop-color="#5b8ffa"/><stop offset=".19" stop-color="#5c8efa"/><stop offset=".2" stop-color="#5c8efa"/><stop offset=".22" stop-color="#5d8dfa"/><stop offset=".23" stop-color="#5e8dfa"/><stop offset=".25" stop-color="#5e8cfa"/><stop offset=".27" stop-color="#5f8bfa"/><stop offset=".28" stop-color="#5f8bfa"/><stop offset=".3" stop-color="#608afa"/><stop offset=".31" stop-color="#608afa"/><stop offset=".31" stop-color="#6089fa"/><stop offset=".33" stop-color="#6189fb"/><stop offset=".34" stop-color="#6188fb"/><stop offset=".36" stop-color="#6288fb"/><stop offset=".38" stop-color="#6287fb"/><stop offset=".39" stop-color="#6387fb"/><stop offset=".41" stop-color="#6386fb"/><stop offset=".42" stop-color="#6486fb"/><stop offset=".44" stop-color="#6485fb"/><stop offset=".45" stop-color="#6584fb"/><stop offset=".47" stop-color="#6684fb"/><stop offset=".48" stop-color="#6683fb"/><stop offset=".5" stop-color="#6783fb"/><stop offset=".52" stop-color="#6782fb"/><stop offset=".53" stop-color="#6882fb"/><stop offset=".55" stop-color="#6881fb"/><stop offset=".56" stop-color="#6980fc"/><stop offset=".58" stop-color="#6980fc"/><stop offset=".59" stop-color="#6a7ffc"/><stop offset=".61" stop-color="#6a7ffc"/><stop offset=".63" stop-color="#6b7efc"/><stop offset=".64" stop-color="#6b7dfc"/><stop offset=".66" stop-color="#6c7dfc"/><stop offset=".67" stop-color="#6d7cfc"/><stop offset=".69" stop-color="#6d7cfc"/><stop offset=".69" stop-color="#6e7bfc"/><stop offset=".7" stop-color="#6e7bfc"/><stop offset=".72" stop-color="#6e7bfc"/><stop offset=".73" stop-color="#6f7afc"/><stop offset=".75" stop-color="#6f79fc"/><stop offset=".77" stop-color="#7079fc"/><stop offset=".78" stop-color="#7078fd"/><stop offset=".8" stop-color="#7178fd"/><stop offset=".81" stop-color="#7177fd"/><stop offset=".83" stop-color="#7277fd"/><stop offset=".84" stop-color="#7276fd"/><stop offset=".86" stop-color="#7375fd"/><stop offset=".88" stop-color="#7375fd"/><stop offset=".89" stop-color="#7474fd"/><stop offset=".91" stop-color="#7574fd"/><stop offset=".92" stop-color="#7573fd"/><stop offset=".94" stop-color="#7673fd"/><stop offset=".95" stop-color="#7672fd"/><stop offset=".97" stop-color="#7771fd"/><stop offset=".98" stop-color="#7771fd"/><stop offset="1" stop-color="#7870fe"/></linearGradient><linearGradient id="g" x1="6.02" x2="23.79" y1="22.71" y2="9.86" gradientTransform="translate(9.6 9.6)scale(3.1875)" gradientUnits="userSpaceOnUse"><stop offset="0" stop-color="#fc44d6"/><stop offset=".02" stop-color="#fc44d6"/><stop offset=".03" stop-color="#fb45d6"/><stop offset=".05" stop-color="#fb45d7"/><stop offset=".06" stop-color="#fa45d8"/><stop offset=".08" stop-color="#f945d8"/><stop offset=".09" stop-color="#f845d9"/><stop offset=".11" stop-color="#f845da"/><stop offset=".13" stop-color="#f745da"/><stop offset=".14" stop-color="#f645db"/><stop offset=".16" stop-color="#f645db"/><stop offset=".17" stop-color="#f545dc"/><stop offset=".19" stop-color="#f446dd"/><stop offset=".2" stop-color="#f446dd"/><stop offset=".22" stop-color="#f346de"/><stop offset=".23" stop-color="#f246df"/><stop offset=".25" stop-color="#f246df"/><stop offset=".27" stop-color="#f146e0"/><stop offset=".28" stop-color="#f046e1"/><stop offset=".3" stop-color="#f046e1"/><stop offset=".31" stop-color="#ef46e2"/><stop offset=".33" stop-color="#ee46e2"/><stop offset=".34" stop-color="#ee47e3"/><stop offset=".34" stop-color="#ed47e3"/><stop offset=".36" stop-color="#ed47e4"/><stop offset=".38" stop-color="#ec47e4"/><stop offset=".39" stop-color="#eb47e5"/><stop offset=".41" stop-color="#eb47e6"/><stop offset=".42" stop-color="#ea47e6"/><stop offset=".44" stop-color="#e947e7"/><stop offset=".45" stop-color="#e947e7"/><stop offset=".47" stop-color="#e847e8"/><stop offset=".48" stop-color="#e747e9"/><stop offset=".5" stop-color="#e748e9"/><stop offset=".52" stop-color="#e648ea"/><stop offset=".53" stop-color="#e548eb"/><stop offset=".55" stop-color="#e548eb"/><stop offset=".56" stop-color="#e448ec"/><stop offset=".58" stop-color="#e348ec"/><stop offset=".59" stop-color="#e348ed"/><stop offset=".61" stop-color="#e248ee"/><stop offset=".63" stop-color="#e148ee"/><stop offset=".64" stop-color="#e048ef"/><stop offset=".66" stop-color="#e049f0"/><stop offset=".66" stop-color="#df49f0"/><stop offset=".67" stop-color="#df49f1"/><stop offset=".69" stop-color="#de49f1"/><stop offset=".7" stop-color="#de49f1"/><stop offset=".72" stop-color="#dd49f2"/><stop offset=".73" stop-color="#dc49f3"/><stop offset=".75" stop-color="#dc49f3"/><stop offset=".77" stop-color="#db49f4"/><stop offset=".78" stop-color="#da49f5"/><stop offset=".8" stop-color="#da49f5"/><stop offset=".81" stop-color="#d94af6"/><stop offset=".83" stop-color="#d84af7"/><stop offset=".84" stop-color="#d84af7"/><stop offset=".86" stop-color="#d74af8"/><stop offset=".88" stop-color="#d64af8"/><stop offset=".89" stop-color="#d64af9"/><stop offset=".91" stop-color="#d54afa"/><stop offset=".92" stop-color="#d44afa"/><stop offset=".94" stop-color="#d34afb"/><stop offset=".95" stop-color="#d34afc"/><stop offset=".97" stop-color="#d24bfc"/><stop offset=".98" stop-color="#d14bfd"/><stop offset="1" stop-color="#d14bfd"/></linearGradient></defs><g clip-path="url(#a)"><path fill-rule="evenodd" d="M75.6 31.52a4.5 4.5 0 0 0-3.27-1.32h-.02a6.45 6.45 0 0 1-6.44-6.45 4.5 4.5 0 0 0-2.73-4.22 5 5 0 0 0-1.73-.37h-36.28a4 4 0 0 0-1.73.36 4 4 0 0 0-1.46 1 4.5 4.5 0 0 0-1.28 3.21 6.5 6.5 0 0 1-6.45 6.46 4 4 0 0 0-1.76.32 4.4 4.4 0 0 0-2.5 2.46 4 4 0 0 0-.35 1.76v11.6a4.6 4.6 0 0 0 .77 2.55 4.4 4.4 0 0 0 2.94 1.91q.45.08.9.07a6.5 6.5 0 0 1 5.95 3.98 7 7 0 0 1 .5 2.46v11.77q0 .51.29.92.3.41.77.59.48.16.97.03.5-.15.8-.54l6.54-8.18h31.38a4 4 0 0 0 1.72-.36 4.6 4.6 0 0 0 2.67-3.33q.08-.45.07-.88v-.01a6.45 6.45 0 0 1 6.46-6.45 4.6 4.6 0 0 0 2.56-.73 4.4 4.4 0 0 0 2.05-3.8v-11.61c0-1.16-.45-2.32-1.33-3.2m-7.7 14.94a6.4 6.4 0 0 1-1.92 4.52 6.6 6.6 0 0 1-4.54 1.87h-36.35a6.4 6.4 0 0 1-5.34-2.84 6 6 0 0 1-.98-2.3 6 6 0 0 1-.13-1.25v-11.86a6.4 6.4 0 0 1 2.89-5.31 6.3 6.3 0 0 1 3.56-1.08h36.34a6.4 6.4 0 0 1 4.54 1.87 6.3 6.3 0 0 1 1.78 3.27q.13.62.14 1.25v11.86Zm0 0"/></g><path fill-rule="evenodd" d="M33.23 33.73a4.5 4.5 0 0 0-4.2 2.8 5 5 0 0 0-.34 1.72v4.54a4.5 4.5 0 0 0 1.33 3.2 5 5 0 0 0 1.47.99 4.6 4.6 0 0 0 3.47 0 4.6 4.6 0 0 0 2.8-4.2v-4.53c0-2.5-2.03-4.53-4.53-4.53Zm20.07 0a4.5 4.5 0 0 0-3.2 1.32 5 5 0 0 0-.99 1.47 5 5 0 0 0-.34 1.74v4.53a4.5 4.5 0 0 0 2.01 3.77 5 5 0 0 0 1.64.68 4.5 4.5 0 0 0 3.4-.68 4 4 0 0 0 1.25-1.25 4.6 4.6 0 0 0 .76-2.52v-4.54c0-2.5-2.03-4.53-4.53-4.53Zm0 0"/><g clip-path="url(#b)"><g clip-path="url(#c)"><path fill="url(#d)" d="M29.63 42.13v40.26h56.47v-40.26Zm0 0"/></g></g><g clip-path="url(#e)"><g clip-path="url(#f)"><path fill="url(#g)" d="M25.07 36.14v40.69h56.83v-40.69Zm0 0"/></g></g></svg>