<svg xmlns="http://www.w3.org/2000/svg" xmlns:xlink="http://www.w3.org/1999/xlink" viewBox="0 0 96 96"><defs><clipPath id="a"><path d="M14 9.6h68v76.5h-68Zm0 0"/></clipPath></defs><g clip-path="url(#a)"><path fill-rule="evenodd" d="M72.66 9.6v23.18h8.66v32.99h-9.36v20.33l-22.43-19.74v19.59h-3.48v-19.61l-22.45 19.76v-20.6h-9.22v-32.99h9.2v-22.9l22.47 20.7v-20.1h3.48v20.68zm-23.13 28.83v23.33l18.95 16.68v-22.81zm-3.5-.26-18.95 17.2v23.07l18.95-16.68Zm25.93 24.17h5.88v-26.13h-25.34l19.46 17.66Zm-28.63-26.4h-25.47v26.12h5.73v-8.2zm-16.28-18.45v15.01h16.3Zm42.14 0-16.3 15.01h16.3Zm0 0"/></g></svg>