<svg xmlns="http://www.w3.org/2000/svg" xmlns:xlink="http://www.w3.org/1999/xlink" viewBox="0 0 96 96"><defs><clipPath id="a"><path d="M15 23h71.1v49h-71.1Zm0 0"/></clipPath></defs><g clip-path="url(#a)"><path fill-rule="evenodd" d="M42.15 38.21v-4.32l1.24-.07c11.46-.37 18.99 10.15 18.99 10.15s-8.13 11.62-16.84 11.62a10 10 0 0 1-3.39-.55v-13.1c4.46.56 5.36 2.59 8.04 7.2l5.97-5.19a15.5 15.5 0 0 0-5.2-4.22 16 16 0 0 0-6.5-1.66q-1.16 0-2.32.14m0-14.27v6.45l1.24-.07c15.94-.55 26.33 13.47 26.33 13.47s-11.93 14.95-24.36 14.95q-1.62 0-3.21-.3v3.99q1.33.18 2.67.18c11.56 0 19.93-6.09 28.03-13.29 1.34 1.11 6.84 3.8 7.97 4.99-7.7 6.64-25.65 12-35.83 12q-1.46-.01-2.84-.16v5.6h43.96v-47.8zm0 31.1v3.4c-10.7-1.96-13.66-13.42-13.66-13.42a22.7 22.7 0 0 1 13.66-6.81v3.74h-.02a10 10 0 0 0-4.41.96 10 10 0 0 0-3.56 2.79s1.96 7.25 8 9.34m-19-10.52a26.3 26.3 0 0 1 19-10.63v-3.5c-14.03 1.16-26.17 13.4-26.17 13.4s6.88 20.48 26.16 22.35v-3.72c-14.15-1.82-19-17.9-19-17.9Zm0 0"/></g></svg>