<svg xmlns="http://www.w3.org/2000/svg" width="128" height="128" viewBox="0 0 96 96"><path fill="#3f3faa" d="M51.313 83.71c17.894 0 32.398-14.534 32.398-32.456 0-17.926-14.504-32.453-32.398-32.453-17.891 0-32.395 14.527-32.395 32.453 0 17.922 14.504 32.457 32.395 32.457m0 0"/><path fill="#8e47ff" d="M44.387 76.902c17.894 0 32.394-14.535 32.394-32.457s-14.5-32.453-32.394-32.453c-17.895 0-32.395 14.531-32.395 32.453s14.5 32.457 32.395 32.457m0 0"/><path fill="#fff" d="M43.883 66.043c-2.301 0-4.516-.766-6.36-2.2a10.3 10.3 0 0 1-2.656-3.077 10.2 10.2 0 0 1-1.265-3.86 10.4 10.4 0 0 1-.02-2.492c-.64.125-1.297.176-1.969.176a10.37 10.37 0 0 1-7.347-3.047 10.4 10.4 0 0 1-2.254-3.371 10.7 10.7 0 0 1-.594-1.95 10.4 10.4 0 0 1-.133-3.195q.065-.584.2-1.152.129-.575.324-1.125.192-.552.449-1.082c.168-.352.36-.691.566-1.02a10 10 0 0 1 .68-.953c.242-.308.504-.597.777-.87q.417-.415.875-.782.458-.362.957-.672a10 10 0 0 1 2.106-1.012 10 10 0 0 1 1.125-.32q.57-.13 1.152-.195a10.6 10.6 0 0 1 2.336.004q.582.07 1.152.199a10.2 10.2 0 0 1-.015-2.184 10.3 10.3 0 0 1 1.316-4.144q.54-.956 1.274-1.778a10.3 10.3 0 0 1 1.617-1.468q.884-.65 1.89-1.102c.668-.3 1.36-.531 2.075-.683a10.2 10.2 0 0 1 4.324-.004q1.059.221 2.055.668.991.44 1.87 1.078T52 25.87q.726.803 1.277 1.742.545.938.891 1.969c.227.688.383 1.39.46 2.11.083.722.09 1.44.02 2.163a10 10 0 0 1 1.684-.152c.566-.004 1.129.035 1.688.125q.837.13 1.64.395.81.264 1.559.652.755.394 1.433.898c.453.34.875.711 1.266 1.122q.591.61 1.07 1.308.487.698.844 1.461a10.44 10.44 0 0 1 .992 4.93 10.178 10.178 0 0 1-.695 3.297q-.306.791-.734 1.52-.435.73-.973 1.382A10.5 10.5 0 0 1 63.234 52q-1.558 1.353-3.515 2.004-1.963.646-4.02.488-.75-.052-1.488-.21c0 .027.016.046.016.066a10.2 10.2 0 0 1-.29 4.05 10.3 10.3 0 0 1-1.824 3.63 10.4 10.4 0 0 1-1.652 1.695q-.924.756-1.996 1.277a10.355 10.355 0 0 1-4.586 1.043Zm-5.766-13.746a6.6 6.6 0 0 0-.836 4.156q.077.657.282 1.277.204.629.53 1.2a6.6 6.6 0 0 0 2.805 2.68 6.65 6.65 0 0 0 3.825.663 6.6 6.6 0 0 0 2.48-.816 6.6 6.6 0 0 0 1.977-1.703q.82-1.05 1.172-2.332a6.6 6.6 0 0 0 .183-2.606 6.55 6.55 0 0 0-1.293-3.199c-.46-.453-.875-.941-1.242-1.472a1.875 1.875 0 0 1-.32-1.383c.043-.242.125-.469.258-.676q.191-.31.496-.527a1.84 1.84 0 0 1 1.382-.317q.366.06.676.254.31.198.528.496c.14.2.28.375.433.551q.198.142.356.324l.18.227q.695.626 1.538 1.035a6.717 6.717 0 0 0 3.617.637 6.7 6.7 0 0 0 3.407-1.371 6.63 6.63 0 0 0 2.168-2.97 6.68 6.68 0 0 0-2.145-7.57 6.5 6.5 0 0 0-1.105-.703 6.5 6.5 0 0 0-1.219-.476 7 7 0 0 0-1.29-.227 6.45 6.45 0 0 0-3.987.969 1.8 1.8 0 0 1-1.004.414 1.8 1.8 0 0 1-1.063-.219 1.89 1.89 0 0 1-.957-1.843q.04-.369.215-.696.206-.382.363-.781.159-.407.258-.824a6 6 0 0 0 .153-.852c.03-.289.042-.574.039-.863a6.4 6.4 0 0 0-.254-1.707 6 6 0 0 0-.29-.813 6.5 6.5 0 0 0-.874-1.484 7 7 0 0 0-1.23-1.21 6.833 6.833 0 0 0-1.496-.86c-.267-.11-.54-.2-.817-.278a7 7 0 0 0-.848-.168 6 6 0 0 0-.863-.058q-.904.001-1.778.242a6.6 6.6 0 0 0-1.648.71q-.78.465-1.402 1.122a6.64 6.64 0 0 0-1.684 3.137 6.69 6.69 0 0 0 .941 5.172l.094.175c1.945 1.895 3.168 4.528 3.168 7.457q0 2.368-1.02 4.5a10.3 10.3 0 0 1-2.859 3.621Zm-6.52-14.8a7 7 0 0 0-1.304.132 6.6 6.6 0 0 0-2.402 1.004q-.55.364-1.012.832a6.715 6.715 0 0 0-1.824 3.422q-.127.647-.125 1.304c0 3.696 2.984 6.696 6.668 6.696.437 0 .875-.043 1.304-.13q.65-.127 1.258-.378.608-.252 1.156-.621a6.5 6.5 0 0 0 1.016-.832 6.74 6.74 0 0 0 1.832-3.426 6.695 6.695 0 0 0-6.566-8.004m0 0"/></svg>