<svg xmlns="http://www.w3.org/2000/svg" width="128" height="128" viewBox="0 0 96 96"><path fill-opacity=".5" fill-rule="evenodd" d="M70.29 24.957a32.45 32.45 0 0 1 9.879 11.531 32.7 32.7 0 0 1 2.647 7.172q.896 3.745.895 7.594c0 17.922-14.504 32.457-32.395 32.457-2.515 0-5-.29-7.445-.867a32.3 32.3 0 0 1-13.316-6.664 32.4 32.4 0 0 1-5.153-5.446 32 32 0 0 0 9.004 4.594 32 32 0 0 0 9.98 1.574c17.895 0 32.395-14.535 32.395-32.457a32.35 32.35 0 0 0-6.492-19.488m0 0"/><path fill-rule="evenodd" d="M44.3 26.176c3.688 0 6.688 3.008 6.688 6.691 0 1.13-.289 2.235-.824 3.207a1.9 1.9 0 0 0-.215.7q-.04.37.067.722c.066.238.18.457.336.649.152.195.34.351.554.472.688.371 1.5.266 2.063-.199a6.63 6.63 0 0 1 6.496-.27c.39.2.762.434 1.105.704q.517.404.946.906.427.497.75 1.07.326.574.53 1.195.205.626.286 1.282.077.65.031 1.308-.053.656-.222 1.29a6.5 6.5 0 0 1-.473 1.222c-.195.395-.43.762-.7 1.11q-.404.515-.902.949c-.332.285-.691.539-1.07.754a6.4 6.4 0 0 1-1.2.53 6.665 6.665 0 0 1-2.586.324 6.5 6.5 0 0 1-3.972-1.698c-.062-.078-.117-.153-.18-.223a2 2 0 0 0-.355-.328 8 8 0 0 1-.433-.55q-.217-.299-.528-.497a1.8 1.8 0 0 0-.676-.254 1.837 1.837 0 0 0-1.879.844 1.9 1.9 0 0 0-.257.676 1.88 1.88 0 0 0 .32 1.383c.375.53.79 1.03 1.242 1.472a6.65 6.65 0 0 1 1.293 3.203 6.65 6.65 0 0 1-1.355 4.93 6.6 6.6 0 0 1-1.977 1.707 6.6 6.6 0 0 1-2.48.816 6.7 6.7 0 0 1-1.309.032A6.64 6.64 0 0 1 38.848 60a6.5 6.5 0 0 1-.754-1.07 7 7 0 0 1-.532-1.2 6.5 6.5 0 0 1-.28-1.28 6.47 6.47 0 0 1 .835-4.157v.016a10.3 10.3 0 0 0 2.86-3.618 10.3 10.3 0 0 0 1.02-4.496c0-2.933-1.224-5.562-3.169-7.46l-.094-.176a6.7 6.7 0 0 1-.78-1.618 6.728 6.728 0 0 1-.16-3.555 6.7 6.7 0 0 1 .628-1.679 6.677 6.677 0 0 1 2.453-2.574 6.6 6.6 0 0 1 1.648-.711 6.5 6.5 0 0 1 1.778-.246m0 0"/><path fill-rule="evenodd" d="M31.598 37.496a6.7 6.7 0 0 1 2.562.512q.608.253 1.156.617c.368.246.704.523 1.016.832.309.313.586.648.832 1.016q.365.549.617 1.156a6.68 6.68 0 0 1-1.449 7.297 6.5 6.5 0 0 1-1.016.832 6.6 6.6 0 0 1-2.414 1q-.647.129-1.304.129-.658.001-1.305-.133a6.4 6.4 0 0 1-1.25-.383 6.66 6.66 0 0 1-3.984-4.875 6.3 6.3 0 0 1-.125-1.3c0-3.696 2.984-6.7 6.664-6.7m0 0"/><path fill-rule="evenodd" d="M44.387 11.992c17.894 0 32.394 14.531 32.394 32.453s-14.5 32.457-32.394 32.457c-17.89 0-32.395-14.535-32.395-32.457 0-17.925 14.504-32.453 32.395-32.453m-.067 10.465c-.73 0-1.457.078-2.172.23a10.44 10.44 0 0 0-7.742 7.036q-.332 1.05-.437 2.14-.11 1.096.015 2.188a12 12 0 0 0-1.152-.2 10.6 10.6 0 0 0-3.488.188q-.575.13-1.125.32a10.5 10.5 0 0 0-2.11 1.012q-.494.309-.953.676a10.3 10.3 0 0 0-1.656 1.648q-.363.456-.68.953-.31.493-.566 1.02-.253.53-.45 1.082-.194.55-.324 1.125a10.3 10.3 0 0 0-.265 2.32c0 5.735 4.668 10.395 10.398 10.395.672 0 1.328-.05 1.969-.172-.094.82-.09 1.645.016 2.484a10.3 10.3 0 0 0 1.265 3.864 10.3 10.3 0 0 0 2.657 3.078 10.2 10.2 0 0 0 3.625 1.832c1.328.367 2.68.465 4.046.289a10.25 10.25 0 0 0 3.86-1.27q1.8-1.024 3.066-2.664a10.35 10.35 0 0 0 2.113-7.683c0-.016-.015-.04-.015-.063.48.106.984.176 1.484.211a10.2 10.2 0 0 0 4.02-.488 10.2 10.2 0 0 0 3.52-2 10.5 10.5 0 0 0 1.991-2.313 10.415 10.415 0 0 0-.273-11.559q-.885-1.26-2.098-2.214a10.5 10.5 0 0 0-2.648-1.512 10.393 10.393 0 0 0-5.559-.555q.105-1.076-.02-2.16a10.3 10.3 0 0 0-.464-2.11 10.37 10.37 0 0 0-5.645-6.23 10.3 10.3 0 0 0-2.054-.668 10 10 0 0 0-2.149-.23m0 0"/></svg>