<svg xmlns="http://www.w3.org/2000/svg" width="128" height="128" viewBox="0 0 96 96"><defs><clipPath id="a"><path d="M9.602 24h76.5v49h-76.5Zm0 0"/></clipPath></defs><g clip-path="url(#a)"><path fill-rule="evenodd" d="M56.621 24.39h16.813c7.062 0 12.668 5.848 12.668 12.91v22.66a12.6 12.6 0 0 1-.942 4.864q-.475 1.155-1.168 2.2a12.6 12.6 0 0 1-3.5 3.5 12.6 12.6 0 0 1-7.058 2.109H56.62l4.14-5.848 12.184-3.898c2.192-.73 3.653-2.926 3.653-5.114v-18.52c0-2.19-1.461-4.382-3.653-5.116l-12.187-3.899-4.14-5.847ZM19.098 57.767c0 2.195 1.468 4.386 3.656 5.12l12.183 3.653 4.145 5.848H22.266q-1.248.01-2.477-.227a12.7 12.7 0 0 1-4.582-1.883 12.625 12.625 0 0 1-4.668-5.7 12.567 12.567 0 0 1-.937-4.86V37.303c0-7.067 5.601-12.91 12.668-12.91h16.808l-4.137 5.843-12.187 3.899c-2.192.734-3.652 2.926-3.652 5.12v18.513Zm0 0"/></g><path fill-rule="evenodd" d="M60.762 45.34H35.18v5.851h25.582Zm0 0"/></svg>