<svg xmlns="http://www.w3.org/2000/svg" width="128" height="128" fill="none" viewBox="0 0 128 128"><g clip-path="url(#a)"><path fill="#006ffb" d="M64 112c26.508 0 48-21.492 48-48S90.508 16 64 16 16 37.492 16 64s21.492 48 48 48"/><path fill="#fff" fill-rule="evenodd" d="M60.96 49.572c.38-2.576 1.208-5.88 2.496-9.92L64 37.984l.544 1.668q1.932 6.058 2.496 9.92.426 2.832 0 7.2-.432 4.387 0 7.256.636 4.199 3.84 6.976a11.18 11.18 0 0 0 7.56 2.832 11.12 11.12 0 0 0 8.136-3.36q3.358-3.355 3.392-8.096.018-4.2.864-9.264c.276-1.688.56-3.1.84-4.24l.38-1.536.672 1.424a31.45 31.45 0 0 1 3.04 12.976v.64a31.4 31.4 0 0 1-2.496 12.356 31.8 31.8 0 0 1-16.912 16.912A31.4 31.4 0 0 1 64 94.14a31.4 31.4 0 0 1-12.356-2.492 31.8 31.8 0 0 1-16.912-16.912 31.4 31.4 0 0 1-2.492-12.36v-.636a31.45 31.45 0 0 1 3.036-12.976l.676-1.424.372 1.54c.288 1.136.572 2.548.844 4.236q.846 5.064.864 9.264c.024 3.16 1.16 5.86 3.392 8.096q3.377 3.36 8.14 3.36 4.291 0 7.556-2.832a11.16 11.16 0 0 0 3.84-6.976q.438-2.869 0-7.256-.426-4.368 0-7.2M64 88.348q6.581-.002 12.34-3.112a25.5 25.5 0 0 0 7.08-5.596c.252-.28-.04-.712-.404-.612-1.48.4-3 .6-4.576.6a16.94 16.94 0 0 1-8.72-2.36 17 17 0 0 1-5.4-4.932.396.396 0 0 0-.64 0 17 17 0 0 1-5.4 4.928 16.94 16.94 0 0 1-8.72 2.364q-2.358 0-4.572-.6c-.364-.1-.66.332-.408.612a25.5 25.5 0 0 0 7.08 5.596q5.759 3.11 12.34 3.112" clip-rule="evenodd"/></g><defs><clipPath id="a"><path fill="#fff" d="M16 16h96v96H16z"/></clipPath></defs></svg>