<svg xmlns="http://www.w3.org/2000/svg" width="128" height="128" fill="none" viewBox="0 0 128 128"><g clip-path="url(#a)"><path fill="#000" fill-rule="evenodd" d="M112 64c0 26.508-21.492 48-48 48S16 90.508 16 64s21.492-48 48-48 48 21.492 48 48M63.456 39.652q-1.933 6.058-2.492 9.92-.432 2.832 0 7.2.432 4.387 0 7.256a11.16 11.16 0 0 1-3.844 6.976 11.18 11.18 0 0 1-7.56 2.832 11.12 11.12 0 0 1-8.136-3.36 11.17 11.17 0 0 1-3.392-8.096q-.018-4.2-.864-9.264c-.272-1.688-.556-3.1-.84-4.24l-.376-1.536-.68 1.424A31.45 31.45 0 0 0 32.24 61.74v.64a31.4 31.4 0 0 0 2.492 12.356 31.8 31.8 0 0 0 16.912 16.912 31.4 31.4 0 0 0 12.36 2.492 31.4 31.4 0 0 0 12.352-2.492 31.8 31.8 0 0 0 16.912-16.912 31.4 31.4 0 0 0 2.496-12.36v-.636a31.45 31.45 0 0 0-3.04-12.976l-.672-1.424-.376 1.54q-.431 1.704-.844 4.236-.84 5.064-.864 9.264a11.17 11.17 0 0 1-3.392 8.096 11.12 11.12 0 0 1-8.136 3.36 11.18 11.18 0 0 1-7.56-2.832 11.16 11.16 0 0 1-3.84-6.976q-.432-2.869 0-7.256.426-4.368 0-7.2-.564-3.862-2.496-9.92L64 37.984zm12.88 45.584A25.55 25.55 0 0 1 64 88.348a25.55 25.55 0 0 1-12.336-3.112 25.5 25.5 0 0 1-7.084-5.596c-.252-.28.04-.712.408-.612q2.213.6 4.576.6 4.687-.001 8.72-2.36a17 17 0 0 0 5.396-4.932.397.397 0 0 1 .64 0 17 17 0 0 0 5.4 4.928 16.94 16.94 0 0 0 8.72 2.364q2.36 0 4.576-.6c.36-.1.656.332.408.612a25.5 25.5 0 0 1-7.084 5.596z" clip-rule="evenodd"/></g><defs><clipPath id="a"><path fill="#fff" d="M16 16h96v96H16z"/></clipPath></defs></svg>