<svg xmlns="http://www.w3.org/2000/svg" width="128" height="128" viewBox="0 0 96 96"><defs><clipPath id="a"><path d="M9.602 19h76.5v57h-76.5Zm0 0"/></clipPath></defs><g clip-path="url(#a)"><path fill="#4d6bfe" d="M85.297 23.887c-.809-.395-1.16.36-1.633.746-.16.125-.3.285-.437.433-1.184 1.266-2.567 2.094-4.375 1.997-2.641-.149-4.899.68-6.895 2.703-.426-2.493-1.832-3.98-3.977-4.938-1.12-.496-2.253-.988-3.043-2.07-.546-.77-.699-1.625-.972-2.469-.176-.508-.348-1.027-.934-1.113-.636-.098-.886.433-1.133.879-1 1.824-1.382 3.832-1.347 5.867.086 4.574 2.02 8.223 5.86 10.812.437.297.55.598.41 1.032-.258.89-.571 1.757-.848 2.656-.176.57-.434.691-1.047.445a17.5 17.5 0 0 1-5.535-3.762c-2.73-2.64-5.2-5.554-8.278-7.835a36 36 0 0 0-2.195-1.5c-3.14-3.051.414-5.555 1.238-5.852.86-.313.293-1.379-2.484-1.367-2.781.015-5.324.941-8.567 2.183-.48.184-.976.328-1.48.434a30.5 30.5 0 0 0-9.191-.324c-6.008.668-10.805 3.511-14.332 8.36-4.239 5.827-5.239 12.452-4.016 19.355 1.281 7.28 5 13.308 10.707 18.02 5.926 4.886 12.742 7.28 20.523 6.82 4.723-.27 9.985-.903 15.918-5.926 1.496.742 3.067 1.039 5.672 1.261 2.008.192 3.942-.093 5.438-.406 2.34-.496 2.18-2.668 1.336-3.062-6.871-3.2-5.364-1.899-6.739-2.954 3.496-4.128 8.754-8.421 10.813-22.32.16-1.105.023-1.8 0-2.695-.012-.54.113-.754.734-.817a13.2 13.2 0 0 0 4.926-1.511c4.45-2.434 6.246-6.422 6.672-11.211.062-.735-.016-1.488-.79-1.875Zm-38.781 43.09c-6.66-5.235-9.891-6.961-11.223-6.887-1.246.078-1.023 1.5-.746 2.433.285.918.66 1.547 1.18 2.356.363.531.613 1.324-.36 1.922-2.144 1.324-5.87-.45-6.047-.535-4.336-2.555-7.968-5.926-10.52-10.54-2.468-4.44-3.902-9.203-4.14-14.285-.062-1.23.297-1.664 1.524-1.886a14.8 14.8 0 0 1 4.87-.125c6.798.992 12.579 4.03 17.43 8.84 2.766 2.742 4.864 6.015 7.02 9.214 2.297 3.399 4.762 6.637 7.906 9.29 1.11.93 1.992 1.64 2.84 2.16-2.559.285-6.82.347-9.734-1.957m3.187-20.528a.974.974 0 0 1 1.32-.918q.293.106.47.36a.95.95 0 0 1 .171.558 1 1 0 0 1-.078.38 1 1 0 0 1-.211.32q-.142.135-.324.21a1 1 0 0 1-.375.07.9.9 0 0 1-.375-.074.9.9 0 0 1-.317-.214 1 1 0 0 1-.21-.317 1 1 0 0 1-.067-.375Zm9.91 5.086c-.636.258-1.27.48-1.879.508a3.83 3.83 0 0 1-2.543-.809c-.875-.73-1.5-1.14-1.761-2.414a5.6 5.6 0 0 1 .05-1.875c.227-1.043-.023-1.71-.761-2.316-.594-.5-1.356-.637-2.192-.637a1.75 1.75 0 0 1-.808-.246c-.352-.172-.637-.605-.364-1.144.09-.172.508-.59.61-.668 1.137-.645 2.445-.434 3.656.05 1.121.461 1.969 1.301 3.188 2.493 1.246 1.437 1.472 1.836 2.183 2.914.563.843 1.074 1.71 1.418 2.703.215.62-.058 1.129-.797 1.441m0 0"/></g></svg>