<svg xmlns="http://www.w3.org/2000/svg" viewBox="0 0 96 96">
  <rect width="96" height="96" fill="#ffffff"/>
  <g transform="translate(8.000, 8.000) scale(0.8333)">
    <defs><clipPath id="a"><path d="M9.6 9.6h76.5v76.4h-76.5Zm0 0"/></clipPath></defs><g clip-path="url(#a)"><path fill-rule="evenodd" d="M38.94 37.2v-7.2q-.02-.92.76-1.37l14.48-8.34a13.5 13.5 0 0 1 6.75-1.66c9.1 0 14.86 7.05 14.86 14.55 0 .53 0 1.14-.08 1.74l-15.01-8.8q-.63-.39-1.36-.39-.75 0-1.37.4Zm33.82 28.05v-17.2q0-1.58-1.37-2.36l-19.03-11.07 6.21-3.56q.35-.23.77-.23.4 0 .75.23l14.48 8.34c4.18 2.42 6.98 7.58 6.98 12.58a14.3 14.3 0 0 1-8.8 13.27Zm-38.3-15.16-6.2-3.64q-.79-.45-.77-1.36v-16.69c0-8.11 6.22-14.25 14.64-14.25a14.2 14.2 0 0 1 8.64 2.96l-14.94 8.64a2.5 2.5 0 0 0-1.36 2.35Zm13.4 7.73-8.92-5v-10.62l8.91-5 8.9 5v10.62Zm5.71 23.05c-3.18 0-6.14-1.06-8.64-2.96l14.94-8.64a2.5 2.5 0 0 0 1.36-2.35v-21.99l6.3 3.64q.77.45.75 1.36v16.68c0 8.12-6.3 14.26-14.7 14.26Zm-17.96-16.9-14.49-8.35c-4.17-2.42-6.97-7.58-6.97-12.58a14 14 0 0 1 2.4-8 14.4 14.4 0 0 1 6.47-5.27v17.28q0 1.58 1.36 2.36l18.96 10.99-6.22 3.56a1.4 1.4 0 0 1-1.51 0m-.84 12.42c-8.57 0-14.86-6.44-14.86-14.4 0-.6.08-1.21.15-1.82l14.94 8.64q1.37.8 2.73 0l19.03-10.99v7.2q.02.91-.76 1.37l-14.48 8.34a13.5 13.5 0 0 1-6.75 1.66m18.8 9.02a19 19 0 0 0 6.37-1.1 19 19 0 0 0 7.95-5.42 19 19 0 0 0 4.26-8.64c8.5-2.2 13.95-10.16 13.95-18.27 0-5.3-2.27-10.46-6.37-14.18q.58-2.39.6-4.77a18.9 18.9 0 0 0-24.94-17.97 18.9 18.9 0 0 0-25.25-1.19 19 19 0 0 0-6.59 10.9c-8.5 2.2-13.95 10.16-13.95 18.27 0 5.3 2.27 10.46 6.37 14.17q-.58 2.4-.6 4.78a18.9 18.9 0 0 0 24.94 17.97 19 19 0 0 0 6.1 4.03q3.44 1.42 7.16 1.43Zm0 0"/></g>
  </g>
</svg>
