<svg xmlns="http://www.w3.org/2000/svg" width="128" height="128" fill="none" viewBox="0 0 128 128"><path fill="#000" d="M75.307 94.898c-1.426 2.322-4.448 2.755-6.397.918l-8.662-8.168c-1.949-1.837-1.918-5.092.064-6.888l8.73-7.91c9.705-8.793 22.489-12.22 34.656-9.292l6.569 1.581c.234.057.451.175.632.345.95.896.418 2.572-.847 2.666l-.141.01c-12.015.896-23.038 7.9-29.82 18.947z"/><path fill="url(#a)" d="M38.671 89.903c-1.812 2.005-4.87 1.82-6.46-.39L14.884 65.402c-1.581-2.2-.971-5.382 1.291-6.743l34.553-20.778c11.02-6.626 24.13-7.327 35.545-1.901l25.065 11.915c.388.185.727.47.985.83 1.379 1.918-.098 4.66-2.345 4.352l-14.932-2.04c-11.923-1.63-23.925 2.958-32.47 12.414z"/><defs><linearGradient id="a" x1="68.601" x2="55.261" y1="31.279" y2="97.733" gradientUnits="userSpaceOnUse"><stop/><stop offset="1"/></linearGradient></defs></svg>