<svg xmlns="http://www.w3.org/2000/svg" width="128" height="128" fill="none" viewBox="0 0 128 128"><g clip-path="url(#a)"><path fill="#000" d="M34.028 40.745h45.53v15.5H49.527a.97.97 0 0 0-.97.972v13.562c0 .536.435.971.97.971h30.031v15.5H65.026a.97.97 0 0 0-.97.972v13.563c0 .535.435.971.97.971h13.562c.535 0 .97-.436.97-.971V87.251h14.533c.535 0 .97-.436.97-.971V72.717a.97.97 0 0 0-.97-.97H79.558V56.245h14.533c.535 0 .97-.436.97-.971V41.712a.97.97 0 0 0-.97-.971H79.558V26.215a.97.97 0 0 0-.97-.97h-44.56a.97.97 0 0 0-.97.97v13.563c0 .535.435.971.97.971z"/></g><defs><clipPath id="a"><path fill="#fff" d="M0 0h128v128H0z"/></clipPath></defs></svg>