<svg xmlns="http://www.w3.org/2000/svg" width="128" height="128" viewBox="0 0 96 96"><path fill-rule="evenodd" d="M54.61 18.21q-1.455 0-2.903.142c-.969.097-1.926.238-2.879.425q-1.43.287-2.82.707-1.396.424-2.738.98c-.899.372-1.774.786-2.633 1.247a29 29 0 0 0-4.828 3.227 29 29 0 0 0-2.157 1.953 29 29 0 0 0-1.953 2.156 29.281 29.281 0 0 0-4.473 7.46q-.557 1.344-.98 2.74-.421 1.394-.707 2.82a30 30 0 0 0-.57 5.785 30 30 0 0 0 .57 5.78c.191.954.426 1.891.707 2.821q.423 1.396.98 2.738a29.213 29.213 0 0 0 2.738 5.125q.81 1.212 1.735 2.336.921 1.126 1.953 2.157c.688.687 1.403 1.34 2.157 1.953q1.124.925 2.336 1.734c.804.54 1.636 1.035 2.492 1.496a30 30 0 0 0 8.191 2.93 29.7 29.7 0 0 0 5.781.57v4.465c-18.836 0-34.105-15.273-34.105-34.11 0-18.84 15.266-34.105 34.105-34.105Zm15.148 11.72a23.467 23.467 0 0 0-5.863-3.645 24 24 0 0 0-2.16-.808 23.2 23.2 0 0 0-6.813-1.114q-1.155-.016-2.309.078a23.6 23.6 0 0 0-6.718 1.59 23 23 0 0 0-4.09 2.125 23 23 0 0 0-1.871 1.352q-.904.721-1.73 1.531-.829.809-1.567 1.691-.744.886-1.395 1.84a23 23 0 0 0-2.219 4.043q-.45 1.067-.796 2.168a23.484 23.484 0 0 0-.98 9.125q.104 1.15.32 2.285c.144.758.328 1.504.546 2.246q.323 1.109.762 2.176.434 1.073.973 2.094a23 23 0 0 0 2.535 3.852q.727.897 1.543 1.718c.539.547 1.11 1.067 1.699 1.559l-2.871 3.426c-.7-.59-1.371-1.207-2.008-1.864a27.875 27.875 0 0 1-7.855-17.082 27 27 0 0 1-.106-2.738q.012-1.371.164-2.73a27.5 27.5 0 0 1 1.125-5.356 29 29 0 0 1 .95-2.566q.54-1.265 1.199-2.465.661-1.2 1.433-2.332a27 27 0 0 1 1.657-2.184q.88-1.05 1.859-2.008a27 27 0 0 1 2.05-1.816 27.516 27.516 0 0 1 4.582-2.992 28 28 0 0 1 2.489-1.145 29 29 0 0 1 2.586-.894 27.64 27.64 0 0 1 5.379-1.008q1.366-.123 2.738-.105 1.371.01 2.73.164a27.5 27.5 0 0 1 5.356 1.125c.871.273 1.727.593 2.57.949q1.26.541 2.461 1.2 1.2.66 2.336 1.433 1.13.772 2.18 1.656ZM62.57 32.62q-.748-.388-1.53-.7a17 17 0 0 0-1.59-.546 18 18 0 0 0-1.638-.387 17.197 17.197 0 0 0-6.687.078 17 17 0 0 0-3.203 1.004c-.516.22-1.024.465-1.516.735q-.737.398-1.433.875-.698.473-1.344 1.011-.646.54-1.238 1.137-.593.603-1.121 1.254a18 18 0 0 0-1.852 2.805 18 18 0 0 0-.711 1.523q-.316.781-.559 1.586-.242.808-.402 1.633a17 17 0 0 0-.32 3.344 17.2 17.2 0 0 0 2.031 8.078q.4.743.863 1.445.469.696 1 1.352c.356.433.73.847 1.13 1.246q.591.598 1.241 1.133a16.77 16.77 0 0 0 2.79 1.875l-2.094 3.953a21.31 21.31 0 0 1-3.477-2.375 20 20 0 0 1-1.55-1.43q-.745-.75-1.407-1.57a21.668 21.668 0 0 1-4.73-11.547 21 21 0 0 1-.106-2.11q0-1.053.102-2.105a22 22 0 0 1 .812-4.133q.305-1.009.703-1.988.404-.979.895-1.91.493-.932 1.074-1.817.579-.879 1.246-1.699a21.5 21.5 0 0 1 2.953-3.004q.81-.675 1.684-1.273a22 22 0 0 1 3.691-2.028c.649-.273 1.305-.52 1.977-.734a23 23 0 0 1 2.039-.539 21 21 0 0 1 2.082-.34c.7-.078 1.398-.125 2.102-.137q1.054-.017 2.109.07c.7.055 1.398.15 2.09.274a21.7 21.7 0 0 1 4.054 1.145c.657.258 1.297.543 1.926.863Zm-7.96 4.195c-.727 0-1.446.075-2.153.215q-1.066.21-2.07.625c-.672.278-1.305.617-1.91 1.02q-.902.603-1.668 1.375a11.032 11.032 0 0 0-2.395 3.578q-.415 1.004-.625 2.07c-.144.711-.215 1.426-.215 2.153q-.001 1.084.215 2.152a11 11 0 0 0 1.645 3.976q.602.901 1.375 1.672a11 11 0 0 0 7.8 3.23v4.47a15.8 15.8 0 0 1-3.027-.297q-1.494-.301-2.906-.883a15.5 15.5 0 0 1-5.028-3.36 15.5 15.5 0 0 1-1.93-2.351 15.4 15.4 0 0 1-2.312-5.586q-.3-1.5-.3-3.023 0-1.529.3-3.028a15.49 15.49 0 0 1 4.242-7.934q1.078-1.081 2.348-1.93a15.5 15.5 0 0 1 2.68-1.433c.941-.386 1.91-.683 2.906-.879q1.5-.3 3.027-.3Zm0 0"/><path fill-rule="evenodd" d="M58.71 44.14a7.2 7.2 0 0 0-1.624-1.304 3.4 3.4 0 0 0-1.734-.484q-1.22 0-2.18.445a5.05 5.05 0 0 0-2.68 2.906 5.9 5.9 0 0 0-.351 2.012c0 .695.117 1.37.351 2.012q.345.971 1.043 1.726a5.1 5.1 0 0 0 1.637 1.184c.637.297 1.367.445 2.18.445q1.032-.001 1.918-.43a4.1 4.1 0 0 0 1.511-1.25l2.961 3.207c-.449.45-.957.832-1.539 1.16a10.7 10.7 0 0 1-3.45 1.211 10 10 0 0 1-1.401.125 10.5 10.5 0 0 1-3.77-.667 8.9 8.9 0 0 1-3.062-1.903 9 9 0 0 1-2.055-2.96 9.5 9.5 0 0 1-.758-3.86c0-1.414.258-2.7.758-3.856a9.1 9.1 0 0 1 2.05-2.96A9.1 9.1 0 0 1 51.583 39a10.4 10.4 0 0 1 3.77-.672c1.128 0 2.27.219 3.414.652a7.74 7.74 0 0 1 3.011 2.067Zm0 0"/></svg>