<svg xmlns="http://www.w3.org/2000/svg" width="128" height="128" fill="none" viewBox="0 0 128 128"><path fill="#39594d" fill-rule="evenodd" d="M48.512 72.396c2.368 0 7.08-.132 13.592-2.812 7.588-3.124 22.688-8.8 33.58-14.624 7.62-4.072 10.96-9.464 10.96-16.72A18.24 18.24 0 0 0 88.4 20H46.196A26.2 26.2 0 0 0 20 46.2c0 14.468 10.98 26.196 28.512 26.196" clip-rule="evenodd"/><path fill="#d18ee2" fill-rule="evenodd" d="M55.648 90.44a17.55 17.55 0 0 1 10.82-16.208l13.292-5.52C93.204 63.136 108 73.016 108 87.572a20.42 20.42 0 0 1-5.981 14.438 20.42 20.42 0 0 1-14.439 5.978l-14.388-.004a17.54 17.54 0 0 1-17.544-17.548z" clip-rule="evenodd"/><path fill="#ff7759" d="M35.104 75.848A15.1 15.1 0 0 0 20 90.952v1.956a15.105 15.105 0 0 0 25.695 10.521 15.1 15.1 0 0 0 4.509-10.521v-1.96a15.1 15.1 0 0 0-15.1-15.1"/></svg>