<svg xmlns="http://www.w3.org/2000/svg" width="128" height="128" fill="none" viewBox="0 0 128 128"><g clip-path="url(#a)"><path fill="#000000" d="M103.915 39.281A4.3 4.3 0 0 0 100.808 38h-54.57c-1.181 0-2.275.486-3.106 1.281l-6.17 6.228c-.832.838-1.27 1.942-1.27 3.135v2.606H98.27v19.875h13.129V48.644c0-1.193-.481-2.297-1.269-3.135l-6.17-6.228zM48.821 77.75V57.875H35.692v22.481c0 1.193.482 2.297 1.27 3.135l6.17 6.228A4.3 4.3 0 0 0 46.238 91h54.614c1.181 0 2.276-.486 3.107-1.281l6.17-6.228c.831-.838 1.27-1.942 1.27-3.135V77.75zM16 61.188v19.168c0 1.193.482 2.297 1.27 3.135l6.17 6.228A4.3 4.3 0 0 0 26.546 91h2.582V57.875H16zm7.44-21.907-6.17 6.228c-.833.838-1.27 1.942-1.27 3.135v2.606h13.128V38h-2.582c-1.181 0-2.275.486-3.106 1.281"/></g><defs><clipPath id="a"><path fill="#fff" d="M16 38h96v53H16z"/></clipPath></defs></svg>
