<svg xmlns="http://www.w3.org/2000/svg" viewBox="0 0 96 96">
  <rect width="96" height="96" fill="#0a0a0a"/>
  <g transform="translate(8.000, 8.000) scale(0.8333)">
    <defs><clipPath id="a"><path d="M9.6 9.6h76.5v76.5h-76.5Zm0 0"/></clipPath></defs><g clip-path="url(#a)"><path fill="#fff" fill-rule="evenodd" d="M9.6 9.6v76.8h76.8v-76.8Zm71.1 71.1h-65.41v-65.41h65.41Zm-24.17-15.88h7.11v5.69h-8.94l-3.86-3.86v-8.94h5.7zm12.8 0h-5.69v-7.1h-7.1v-5.7h8.93l3.86 3.86Zm-24.18-8.29h-5.69v-5.69h5.7Zm-18.49-5.69h5.7v12.8h12.8v5.69h-14.63l-3.87-3.86Zm42.67-11.38v5.7h-18.49v-5.7h6.36v-7.1h-6.36v-5.7h8.19l3.85 3.87v8.93Zm-36.98-6.4h7.11l5.7 5.7v6.4h-5.7v-6.4h-7.1v6.4h-5.7v-18.5h5.7Zm12.8 0h-5.69v-6.4h5.7Zm0 0"/></g>
  </g>
</svg>
