<svg xmlns="http://www.w3.org/2000/svg" xmlns:xlink="http://www.w3.org/1999/xlink" viewBox="0 0 96 96"><defs><clipPath id="a"><path d="M9.6 9.6h76.5v76.5h-76.5Zm0 0"/></clipPath></defs><g clip-path="url(#a)"><path fill-rule="evenodd" d="M9.6 9.6v76.5h76.5v-76.5Zm70.83 70.83h-65.16v-65.16h65.16Zm-24.08-15.82h7.08v5.67h-8.9l-3.84-3.85v-8.9h5.67zm12.75 0h-5.67v-7.08h-7.08v-5.67h8.9l3.85 3.85Zm-24.08-8.26h-5.67v-5.67h5.67Zm-18.42-5.67h5.67v12.75h12.75v5.67h-14.57l-3.85-3.85Zm42.5-11.33v5.67h-18.42v-5.67h6.34v-7.08h-6.34v-5.67h8.16l3.84 3.85v8.9Zm-36.83-6.38h7.08l5.67 5.67v6.38h-5.67v-6.38h-7.08v6.38h-5.67v-18.42h5.67Zm12.75 0h-5.67v-6.37h5.67Zm0 0"/></g></svg>