<svg xmlns="http://www.w3.org/2000/svg" xmlns:xlink="http://www.w3.org/1999/xlink" viewBox="0 0 96 96"><defs><clipPath id="a"><path d="M47 14h39.1v39h-39.1Zm0 0"/></clipPath><clipPath id="b"><path d="M9.6 14h38.4v39h-38.4Zm0 0"/></clipPath></defs><g clip-path="url(#a)"><path fill="#ef2cc1" d="M83.54 23.95a20 20 0 0 0-3.49-4.4 19.2 19.2 0 0 0-20.97-3.45q-.86.39-1.67.85a19 19 0 0 0-6.8 6.64 19 19 0 0 0-2.74 9.09l19.1.02v1.64h-19.1a19 19 0 0 0 2.54 8.74 19 19 0 0 0 2.16 3.12 19 19 0 0 0 7.66 5.45 19 19 0 0 0 7.44 1.29 19.2 19.2 0 0 0 15.78-9.12 19 19 0 0 0 2.22-5.22 20 20 0 0 0 .58-3.75 18 18 0 0 0-.18-3.79 19 19 0 0 0-1.64-5.43q-.4-.86-.9-1.68Zm0 0"/></g><g clip-path="url(#b)"><path fill="#caaef5" d="M12.16 23.95a19 19 0 0 0-2.06 5.21 20 20 0 0 0-.46 5.6 20 20 0 0 0 1.19 5.48 18 18 0 0 0 1.65 3.37 20 20 0 0 0 2.29 2.97 20 20 0 0 0 2.82 2.47 19 19 0 0 0 5.98 2.89 19 19 0 0 0 13.98-1.46l-9.53-16.57 1.42-.82 9.56 16.55a19 19 0 0 0 4.78-4.34 19 19 0 0 0 2.26-3.68 19 19 0 0 0 1.8-8.4 19 19 0 0 0-2.04-8.33 19 19 0 0 0-3.85-5.2 19.4 19.4 0 0 0-7.37-4.39 19.4 19.4 0 0 0-10.68-.3 19 19 0 0 0-11.74 8.95m0 0"/></g><path fill="#fc4c02" d="M47.85 85.76a19 19 0 0 0 5.55-.82 18 18 0 0 0 3.46-1.44 19 19 0 0 0 9.75-13.13 20 20 0 0 0 .36-3.73c0-6.8-3.5-12.74-8.84-16.13l-9.58 16.54-1.42-.82 9.56-16.55a20 20 0 0 0-4.04-1.55 19 19 0 0 0-6.44-.55 19 19 0 0 0-8.17 2.64 19 19 0 0 0-4.9 4.2 19.2 19.2 0 0 0-3.99 16.25 19.2 19.2 0 0 0 18.7 15.1m0 0"/></svg>