<svg xmlns="http://www.w3.org/2000/svg" width="96" height="96" viewBox="0 0 1500 1500"><path fill="#f04d22" fill-rule="evenodd" d="M751.8 250c-192.652-1.75-350 150-351.8 339.05-1.75 189.098 152.75 343.598 345.398 345.348h121V806.102H751.801c-120.352 1.398-219-93.301-220.403-211.5C529.95 476.5 626.45 379.699 746.801 378.3h5c120.347 0 217.898 95.75 218.25 213.898v315.25c0 117.102-97.2 212.5-216.153 213.95a218 218 0 0 1-20.98-1.157 218 218 0 0 1-20.773-3.168 218 218 0 0 1-20.375-5.144 218 218 0 0 1-19.786-7.075 218.4 218.4 0 0 1-37.086-19.668q-8.776-5.795-16.96-12.41a218 218 0 0 1-15.688-13.976l-92.55 90.898a346 346 0 0 0 12.238 11.457 345 345 0 0 0 12.769 10.86q6.516 5.279 13.277 10.234a348.648 348.648 0 0 0 42.555 26.734 347.979 347.979 0 0 0 30.309 14.313 343 343 0 0 0 15.632 6.05 345 345 0 0 0 15.907 5.298 344 344 0 0 0 16.14 4.527 348 348 0 0 0 32.836 6.715 350 350 0 0 0 16.625 2.172q8.34.884 16.707 1.37a348 348 0 0 0 16.754.571h4.602c190.148-2.8 342.898-154.148 343.949-340.8v-325C1095.352 398.147 940.852 250 751.8 250m0 0"/></svg>
