<svg xmlns="http://www.w3.org/2000/svg" xmlns:xlink="http://www.w3.org/1999/xlink" viewBox="0 0 96 96"><defs><clipPath id="a"><path d="M9.6 15h76.5v65h-76.5Zm0 0"/></clipPath></defs><g clip-path="url(#a)"><path fill-rule="evenodd" d="m63.16 15.84 23.02 13.08v.28l-23.25 12.94.05-6.75-2.62-.09c-3.37-.09-5.13 0-7.22.35-3.4.56-6.5 1.84-10.03 4.31l-6.91 4.8c-.9.62-1.58 1.07-2.17 1.45l-1.64 1.02-1.27.75 1.23.73 1.7 1.08c1.5 1 3.72 2.54 8.6 5.95 3.54 2.47 6.64 3.75 10.03 4.3l.96.15c2.21.29 4.38.3 9 .1l.07-6.88 23.02 13.09v.28l-23.25 12.95.04-5.94-2.02.07c-4.42.13-6.81 0-10-.52-5.4-.9-10.4-2.95-15.56-6.56l-6.88-4.78q-1.2-.82-2.4-1.59l-1.5-.89q-1.2-.7-2.42-1.37c-2.87-1.6-10.35-3.56-12.14-3.56v-13.47h.45c1.8-.01 9.27-1.97 12.14-3.57l3.24-1.85 1.39-.88c1.37-.89 3.42-2.3 8.56-5.9 5.17-3.61 10.16-5.67 15.56-6.56 3.67-.61 6.3-.68 12.16-.44Zm0 0"/></g></svg>