<svg xmlns="http://www.w3.org/2000/svg" xmlns:xlink="http://www.w3.org/1999/xlink" viewBox="0 0 96 96"><defs><clipPath id="a"><path d="M9.6 15h76.5v65h-76.5Zm0 0"/></clipPath></defs><g clip-path="url(#a)"><path fill="#6467f2" fill-rule="evenodd" d="m63.37 15.86 23.1 13.14v.27l-23.34 13 .05-6.77-2.62-.1c-3.39-.1-5.16 0-7.26.35-3.4.56-6.52 1.85-10.07 4.33l-6.93 4.81c-.9.63-1.58 1.08-2.17 1.46l-1.65 1.03-1.27.75 1.23.73 1.7 1.09c1.52 1 3.74 2.54 8.64 5.96 3.55 2.48 6.66 3.77 10.07 4.33l.96.15c2.22.29 4.4.3 9.04.1l.07-6.9 23.1 13.13v.28l-23.34 13 .05-5.96-2.04.07c-4.43.13-6.83 0-10.04-.52-5.42-.9-10.43-2.97-15.61-6.59l-6.91-4.8q-1.2-.82-2.42-1.6l-1.5-.89q-1.2-.7-2.42-1.37c-2.88-1.61-10.39-3.57-12.19-3.57v-13.53l.45.01c1.8-.02 9.3-1.99 12.18-3.6l3.26-1.85 1.4-.88c1.37-.9 3.43-2.32 8.6-5.93 5.18-3.62 10.19-5.7 15.61-6.58 3.69-.61 6.32-.69 12.2-.45Zm0 0"/></g></svg>