<svg xmlns="http://www.w3.org/2000/svg" width="96" height="96" fill="none" viewBox="0 0 326 366"><path fill="#d30" fill-rule="evenodd" d="M105.481 245.984a66.1 66.1 0 0 0-21.274-10.48c-8.017-2.273-16.801-3.077-25.39-2.124s-16.984 3.662-24.308 7.637a66.1 66.1 0 0 0-18.46 14.888A66.2 66.2 0 0 0 4.03 276.35c-2.856 7.828-4.304 16.529-3.986 25.165.318 8.637 2.403 17.208 5.827 24.804a66.2 66.2 0 0 0 13.49 19.506 66.2 66.2 0 0 0 19.505 13.489c7.597 3.425 16.168 5.509 24.804 5.828s17.338-1.13 25.166-3.987a66.2 66.2 0 0 0 20.445-12.017 66.1 66.1 0 0 0 14.888-18.46c3.974-7.324 6.684-15.719 7.637-24.308s.149-17.374-2.124-25.391a66.2 66.2 0 0 0-10.48-21.274l14.75-14.751 10.737 10.737h6.099l7.36-7.36v-6.098l-10.737-10.737L163 215.908l15.588 15.588-10.737 10.737v6.098l7.36 7.36h6.099l10.737-10.737 14.75 14.751a66.2 66.2 0 0 0-10.48 21.274c-2.273 8.017-3.077 16.802-2.124 25.391s3.663 16.984 7.637 24.308a66.1 66.1 0 0 0 14.888 18.46 66.2 66.2 0 0 0 20.445 12.017c7.828 2.857 16.53 4.305 25.166 3.987 8.636-.319 17.207-2.403 24.804-5.828a66.1 66.1 0 0 0 19.505-13.489 66.2 66.2 0 0 0 13.49-19.506c3.424-7.596 5.509-16.167 5.827-24.804s-1.13-17.337-3.986-25.165a66.126 66.126 0 0 0-30.478-35.333c-7.324-3.975-15.718-6.685-24.308-7.637-8.589-.953-17.373-.149-25.39 2.124a66.1 66.1 0 0 0-21.274 10.48l-14.477-14.5 10.732-10.731v-6.098l-7.623-7.623h-6.099l-10.737 10.737-15.594-15.583 81.752-81.752 33.094 33.094v-34.433H326l-33.093-33.094L326 52.908v-6.099l-7.623-7.622h-6.098L163 188.465 13.721 39.187H7.623L0 46.81v6.098L33.093 86 0 119.095h34.433v34.433l33.093-33.094 81.753 81.752-15.594 15.583-10.737-10.737h-6.099l-7.623 7.623v6.098l10.732 10.731zm132.663 75.731c-3.366 6.905-2.667 16.473 1.667 22.816 3.982 6.569 12.405 11.162 20.084 10.953 7.679.209 16.102-4.384 20.084-10.953 4.334-6.343 5.033-15.911 1.667-22.816l.838-.903c6.905 3.384 16.487 2.699 22.84-1.634 6.58-3.978 11.184-12.41 10.973-20.097.211-7.686-4.393-16.118-10.973-20.097-6.353-4.332-15.935-5.018-22.84-1.633l-.838-.903c3.366-6.905 2.667-16.474-1.667-22.816-3.982-6.569-12.405-11.163-20.084-10.953-7.679-.21-16.102 4.384-20.084 10.953-4.334 6.342-5.033 15.911-1.667 22.816l-.838.903c-6.905-3.385-16.488-2.699-22.84 1.633-6.58 3.979-11.184 12.411-10.974 20.097-.21 7.687 4.394 16.119 10.974 20.097 6.352 4.333 15.935 5.018 22.84 1.634zM86.186 344.531c4.334-6.343 5.033-15.911 1.667-22.816l.838-.903c6.905 3.384 16.487 2.699 22.84-1.634 6.579-3.978 11.184-12.41 10.973-20.097.211-7.686-4.394-16.118-10.973-20.097-6.353-4.332-15.935-5.018-22.84-1.633l-.838-.903c3.366-6.905 2.667-16.474-1.667-22.816-3.982-6.569-12.405-11.163-20.084-10.953-7.679-.21-16.102 4.384-20.084 10.953-4.334 6.342-5.033 15.911-1.667 22.816l-.838.903c-6.905-3.385-16.487-2.699-22.84 1.633-6.58 3.979-11.184 12.411-10.974 20.097-.21 7.687 4.394 16.119 10.974 20.097 6.353 4.333 15.935 5.018 22.84 1.634l.838.903c-3.366 6.905-2.667 16.473 1.667 22.816C50 351.1 58.423 355.693 66.102 355.484c7.679.209 16.102-4.384 20.084-10.953" clip-rule="evenodd"/><path fill="#d30" fill-rule="evenodd" d="M162.891 39.186 202.078 0l19.404 19.405v65.41l-53.74 53.74h-9.702l-53.74-53.74v-65.41L123.705 0zm-39.186-25.465 34.335 34.336v63.055l-34.335-34.335zm44.039 34.336 34.335-34.336v63.056l-34.335 34.335z" clip-rule="evenodd"/></svg>
