<svg xmlns="http://www.w3.org/2000/svg" width="128" height="128" fill="none" viewBox="0 0 128 128"><path fill="#000" fill-rule="evenodd" d="M84.298 34.365c4.358 2.576 9.427 3.375 14.318 2.487 9.694-1.243 16.719 9.327 11.739 17.765-4.802 8.528-17.52 7.64-21.255-1.332-8.804-22.74-41.354-22.74-50.247 0-3.646 8.972-16.452 9.86-21.255 1.332-4.891-8.438 2.135-19.008 11.74-17.765 4.89.888 9.96 0 14.318-2.487 4.446-2.487 7.648-6.396 9.338-11.103 3.913-9.683 18.053-9.683 21.966 0 1.69 4.619 4.98 8.616 9.338 11.103M64.02 46.623c9.694 0 15.386 11.281 9.427 19.098-3.201 3.73-4.98 8.527-4.98 13.59 0 4.974 1.778 9.771 4.98 13.59 6.048 7.817.267 19.187-9.427 19.098-9.693 0-15.385-11.281-9.427-19.097 3.202-3.73 4.98-8.528 4.98-13.59 0-4.975-1.778-9.772-4.98-13.591-6.047-7.817-.266-19.187 9.427-19.098" clip-rule="evenodd"/></svg>