<svg xmlns="http://www.w3.org/2000/svg" viewBox="0 0 96 96"><path fill-rule="evenodd" d="M34.8 13.07q1.02.42 1.87 1.31a11.5 11.5 0 0 1 2.34 4.03c.61 1.66 1 3.5 1.15 5.35a16 16 0 0 1 6.54-2.03h.16a14.7 14.7 0 0 1 8.85 2.04c.16-1.8.55-3.61 1.15-5.23.6-1.66 1.4-3.06 2.34-4.04q.78-.85 1.87-1.3c.82-.32 1.7-.38 2.54-.13a6 6 0 0 1 3.24 2.34 12 12 0 0 1 1.79 4.1c.73 2.98.86 6.9.36 11.62l.17.13.08.06a14.3 14.3 0 0 1 4.98 7.5c1.4 4.73.7 10.05-1.7 13.02l-.05.07v.01c1.33 2.43 2.14 5 2.3 7.65l.02.1q.32 5.1-2.6 10.17l-.02.03.03.07a20.6 20.6 0 0 1 1.4 11.11l-.02.13a2.08 2.08 0 0 1-4.1-.66q.8-4.93-1.53-9.95a2 2 0 0 1-.19-1q.03-.53.32-.97v-.02c1.93-2.94 2.73-5.83 2.56-8.67a15 15 0 0 0-2.55-7.24 2 2 0 0 1-.3-1.53q.09-.4.3-.74.24-.32.57-.56l.03-.02c.77-.5 1.49-1.8 1.85-3.57q.6-3.17-.3-6.29a10 10 0 0 0-3.53-5.36c-1.9-1.45-4.4-2.15-7.58-1.95q-.64.05-1.2-.28a2 2 0 0 1-.82-.9 9.6 9.6 0 0 0-9.92-5.64c-3.97.32-7.47 2.56-8.52 5.38a2.1 2.1 0 0 1-1.94 1.35c-3.4.01-6.04.8-7.96 2.24a9.4 9.4 0 0 0-3.4 5.07 13 13 0 0 0-.22 6c.36 1.79 1.06 3.26 1.86 4.05l.03.03c.67.66.81 1.68.34 2.5-1.14 1.98-2 4.93-2.14 7.77-.16 3.25.59 6.07 2.29 8.09l.05.06a2 2 0 0 1 .3 2.2c-1.83 3.94-2.4 7.18-1.79 9.73a2 2 0 0 1-.28 1.54 2.07 2.07 0 0 1-3.42.12 2 2 0 0 1-.34-.71c-.78-3.25-.25-6.96 1.5-11.16l.05-.1-.03-.04a14 14 0 0 1-1.9-4.18l-.02-.06a18 18 0 0 1-.56-5.69c.14-2.9.88-5.87 1.98-8.25l.04-.09a13 13 0 0 1-2.01-4.93l-.02-.07a17 17 0 0 1 .3-7.94 13.5 13.5 0 0 1 5.49-7.65c-.51-4.76-.39-8.7.35-11.7q.6-2.48 1.79-4.1a6 6 0 0 1 3.24-2.35 4 4 0 0 1 2.54.13m13.12 28.98c2.98 0 5.74 1 7.8 2.72 2 1.68 3.2 3.94 3.2 6.19a7.2 7.2 0 0 1-3.62 6.44c-1.97 1.2-4.62 1.78-7.66 1.78-3.21 0-5.96-.83-7.94-2.34a7.4 7.4 0 0 1-3.07-5.88c0-2.26 1.27-4.52 3.37-6.2a12.7 12.7 0 0 1 7.92-2.71m0 2.86a9.7 9.7 0 0 0-6.11 2.07c-1.47 1.18-2.3 2.66-2.3 3.98 0 1.36.67 2.64 1.94 3.61 1.45 1.11 3.59 1.75 6.2 1.75 2.54 0 4.69-.46 6.15-1.36a4.4 4.4 0 0 0 2.24-4c0-1.35-.79-2.84-2.18-4a9.2 9.2 0 0 0-5.94-2.05m2.1 3.85.02.01c.38.48.3 1.18-.18 1.57l-.93.73v1.42q0 .24-.1.46-.08.21-.25.38t-.4.26-.45.09a1.2 1.2 0 0 1-.84-.35 1.2 1.2 0 0 1-.35-.84v-1.47l-.87-.7a1 1 0 0 1-.4-.74 1 1 0 0 1 .23-.81 1 1 0 0 1 .76-.4 1 1 0 0 1 .82.24l.69.54.7-.55a1 1 0 0 1 .8-.24q.24.03.42.13.2.1.34.27m-16.06-6.12a2.77 2.77 0 1 1-2.55 3.84 2.7 2.7 0 0 1 0-2.12 2.8 2.8 0 0 1 1.49-1.5q.5-.22 1.06-.22m27.75 0a2.77 2.77 0 1 1 0 5.55 2.77 2.77 0 0 1 0-5.55m-28.4-25.71q-.58.26-.91.77l-.02.01q-.67.91-1.1 2.66c-.55 2.2-.7 5.2-.4 8.86q2.05-.6 4.47-.75h.03l.07-.11q.22-.39.46-.76c.4-2.46.07-5.4-.8-7.8a8 8 0 0 0-1.45-2.59 2 2 0 0 0-.34-.28Zm29.25.13a2 2 0 0 0-.35.29 8 8 0 0 0-1.44 2.6 16 16 0 0 0-.74 8.2l.19.3.02.05h.1q2.39 0 4.67.67c.28-3.58.12-6.51-.4-8.67a8 8 0 0 0-1.12-2.66l-.01-.02q-.34-.52-.91-.76zm0 0"/></svg>